<?xml version="1.0" encoding="UTF-8"?>
<!DOCTYPE svg PUBLIC "-//W3C//DTD SVG 1.1//EN" "http://www.w3.org/Graphics/SVG/1.1/DTD/svg11.dtd">
<!-- Creator: CorelDRAW X7 -->
<svg xmlns="http://www.w3.org/2000/svg" xml:space="preserve" width="147mm" height="111mm" version="1.1" style="shape-rendering:geometricPrecision; text-rendering:geometricPrecision; image-rendering:optimizeQuality; fill-rule:evenodd; clip-rule:evenodd"
viewBox="0 0 14700 11100"
 xmlns:xlink="http://www.w3.org/1999/xlink">
 <defs>
  <style type="text/css">
   <![CDATA[
    .fil4 {fill:none}
    .fil2 {fill:#434242}
    .fil0 {fill:#434242;fill-rule:nonzero}
    .fil3 {fill:#2B2A29;fill-rule:nonzero}
    .fil1 {fill:#0078BF;fill-rule:nonzero}
   ]]>
  </style>
 </defs>
 <g id="Layer_x0020_1">
  <metadata id="CorelCorpID_0Corel-Layer"/>
  <g id="_653575031808">
   <path class="fil0" d="M4871 3222c49,251 90,412 194,459 104,48 748,111 1003,-18 216,-109 -55,-654 38,-684 374,-23 673,132 1241,396 529,247 1232,175 1864,134 414,-12 893,-109 701,-32 -357,144 -757,204 -997,222 -254,19 -181,23 -447,32 -801,28 -980,-27 -1407,-280l0 0 -6 -3 0 0c-278,-125 -723,-448 -951,-469 -255,16 -805,6 -938,-58 -133,-64 -230,-125 -312,-251 -114,-180 -35,115 17,552z"/>
   <path class="fil1" d="M9897 3377c299,-47 286,-509 9,-713 -343,-229 -1020,-479 -1271,-442 -49,-15 -78,-287 678,19 492,184 616,204 878,386 129,119 154,303 100,462 -51,152 -237,265 -398,292 -4,1 -8,-4 4,-4z"/>
   <path class="fil1" d="M5112 1164l0 1c-16,32 -35,75 -110,258 -155,391 -437,1074 159,1345 209,93 614,129 826,60 51,-15 17,-9 0,-7 -249,1 -542,-207 -653,-283 -478,-403 -410,-705 -272,-1102 34,-109 33,-196 50,-271l0 -1 0 0z"/>
   <path class="fil1" d="M5127 1167l0 1 0 0c-6,28 -10,58 -14,90 -7,54 -15,114 -36,182l0 1c-68,196 -119,369 -95,541 25,172 126,345 361,543l8 6c116,80 397,275 635,274l11 -1c14,-2 28,-3 32,10l0 0c3,10 -6,19 -37,29 -106,34 -258,43 -411,32 -158,-12 -318,-45 -426,-93l0 0c-600,-272 -332,-948 -175,-1346l0 0 7 -18 1 0c38,-94 61,-151 77,-187 16,-38 25,-57 33,-73l11 5 18 4zm-48 110c-15,37 -35,85 -63,152l0 0 -7 19 0 0c-154,387 -414,1045 158,1306l0 0c105,46 261,78 416,90 118,8 236,5 330,-13 -229,-32 -473,-201 -579,-275l-9 -6 -1 0 0 -1c-242,-204 -346,-383 -372,-562 -26,-179 26,-355 95,-556l0 0c18,-57 26,-108 32,-154zm920 1548l0 0 0 -3c-1,-4 -1,-1 0,3zm0 0c1,0 1,0 0,-2l0 0 0 -1 0 3z"/>
   <path class="fil1" d="M7378 1429c-246,-59 -377,-213 -420,-264 -262,-313 -254,-1129 -239,-1126 18,4 139,715 346,1041 72,114 330,288 480,257l164 63 -292 183c-44,27 -79,48 -103,67 -11,8 -19,24 -10,32 12,9 32,7 81,-2 48,-9 106,-26 185,-49 136,-41 222,-47 269,-57 46,-9 77,-10 92,-3 1,0 4,2 10,7 2,1 4,2 6,3 -49,1 -140,22 -273,65 -43,14 -77,24 -101,31 -101,31 -176,49 -226,54 -49,5 -90,0 -123,-15 -28,-13 -46,-31 -54,-54 -8,-23 -4,-48 11,-76 19,-36 89,-90 209,-160 19,-12 -22,9 -12,3zm776 228c-3,-6 -7,-11 -11,-15 -5,-4 -10,-7 -15,-9 -22,-10 -52,-10 -89,0 -37,10 -84,31 -140,62 -53,29 -100,60 -142,92 -41,32 -62,42 -65,58 -4,28 10,36 30,45 52,24 172,9 373,-52 64,-19 162,-29 233,-42 42,-8 70,-9 82,-3 1,1 4,3 10,7 2,2 4,3 5,3 -54,2 -140,22 -258,59 -21,7 -36,12 -46,15l-39 12c-195,59 -329,72 -403,38 -46,-21 -76,-51 -89,-89 -14,-38 -10,-78 14,-121 20,-38 50,-68 88,-92 39,-23 88,-41 148,-52 53,-10 105,-13 155,-10 50,4 92,13 125,28 35,16 58,36 69,58 11,22 9,47 -5,73 -11,19 -26,32 -47,39 -21,7 -41,6 -60,-3 -17,-8 -29,-19 -35,-33 -6,-14 -5,-28 2,-42 9,-15 23,-25 44,-30 20,-5 42,-4 66,4zm76 346c-27,23 -39,36 -51,48 -12,12 -20,22 -24,30 -6,9 -5,18 0,25 5,8 16,15 32,22 39,19 86,28 141,27 123,-1 245,-15 368,-45 131,-32 316,57 336,66 1,1 3,2 6,4 3,3 -33,70 -36,71 -55,-12 -192,-84 -292,-55 -129,36 -272,46 -402,30 -72,-9 -124,-31 -168,-59 -52,-34 -64,-69 -80,-110 -15,-40 -8,-81 14,-123 19,-36 50,-65 91,-87 42,-23 95,-40 160,-51 55,-9 107,-12 156,-8 50,4 91,13 124,28 30,14 50,33 59,57 9,23 6,48 -8,75 -24,43 -74,69 -152,79 -78,9 -174,4 -274,-24zm29 -23c67,20 136,22 206,3 71,-18 116,-45 137,-83 6,-11 7,-22 5,-33 -3,-10 -9,-18 -18,-22 -25,-11 -70,-5 -136,20 -66,25 -131,63 -194,115z"/>
   <g>
    <path class="fil1" d="M7606 1683l-28 9 0 0c-52,16 -96,28 -134,37 -38,9 -69,15 -95,17l0 0c-26,3 -50,3 -71,0 -23,-2 -42,-8 -60,-16 -16,-7 -29,-16 -40,-27 -10,-10 -18,-23 -23,-36l0 0c-5,-14 -6,-29 -4,-44 2,-14 8,-29 16,-44 11,-21 35,-45 72,-73 27,-21 62,-44 104,-70 -110,-32 -196,-81 -261,-130 -70,-53 -114,-106 -136,-132 -182,-218 -236,-674 -246,-937 -3,-58 -3,-107 -2,-142 1,-40 6,-66 13,-69l2 -2 3 0 0 0 3 -1 3 1c15,3 28,59 49,148 53,222 157,664 307,900l0 0c38,60 131,139 231,192 82,44 169,71 233,58l4 -1 5 1 163 64 29 11 -26 17 -291 182 -1 0 -24 15c-32,20 -59,36 -77,51l0 0c-2,1 -3,3 -5,4 -1,2 -2,4 -3,5 3,1 7,2 14,1 12,0 28,-3 52,-7 23,-5 50,-11 80,-19 30,-8 64,-18 103,-30 104,-31 178,-42 229,-50l14 -2c27,-5 83,-15 110,-17l0 0c27,-1 53,-1 78,1 26,1 50,5 71,10 22,5 42,11 59,19 19,9 35,18 47,29 13,11 23,23 30,36l0 0c6,14 9,28 8,43 -1,15 -6,29 -14,44l0 0c-6,12 -14,21 -23,29l0 0c-9,8 -20,14 -33,18 -12,4 -24,6 -36,5 -12,-1 -23,-4 -35,-9 -10,-5 -18,-10 -25,-17 -8,-7 -13,-15 -17,-24l0 0c-4,-9 -6,-18 -5,-28l0 0c0,-9 3,-18 8,-27 5,-10 12,-18 21,-24 6,-4 12,-7 19,-10l-465 41zm-505 -402c67,51 159,103 278,132 0,-1 0,-1 0,-1l0 0c11,-5 21,-11 29,1 2,3 3,5 3,8l7 1 -8 5c-2,4 -6,8 -12,12l0 0c-59,35 -106,65 -141,92 -33,25 -54,46 -63,62 -6,12 -10,24 -12,35 -1,10 -1,20 2,29l0 0c4,9 9,17 16,24 8,8 18,15 31,21 15,7 31,11 50,14l0 0c20,2 41,2 65,0l0 0c24,-3 54,-8 91,-17 38,-9 82,-21 132,-36l0 0 67 -21 13 -4c7,-7 15,-12 23,-18 -29,7 -62,15 -98,26 -39,12 -73,22 -104,30 -31,8 -58,14 -83,19 -25,5 -42,8 -56,8 -17,1 -28,-2 -37,-9l0 0c-1,-2 -3,-3 -4,-5l0 0c-6,-7 -7,-16 -4,-24 1,-6 5,-13 9,-18 3,-4 6,-7 10,-10l0 0c19,-15 47,-32 80,-53l24 -15 0 0 265 -165 -130 -51c-72,13 -163,-16 -249,-62 -105,-56 -203,-138 -243,-202l0 0c-153,-241 -258,-686 -311,-910 -6,-23 -10,-43 -12,-60 -1,32 0,72 2,117 10,259 62,707 239,919 21,25 64,75 131,126zm874 297l39 18 -67 1c-23,0 -57,5 -102,16 -45,11 -101,27 -166,48l0 0 -15 4c-4,4 -8,8 -12,12l0 0c-14,14 -25,30 -35,47l0 0c-10,20 -17,39 -19,57 -2,18 0,35 6,52l0 0c6,17 16,32 29,45 14,13 31,25 53,35 34,16 83,21 148,15 66,-7 147,-25 243,-54l0 0 37 -11c8,-7 18,-14 27,-20 -15,3 -29,6 -42,10l0 0c-101,31 -182,50 -244,58 -65,9 -111,6 -140,-7 -11,-5 -21,-10 -29,-19l0 0c-8,-10 -12,-23 -9,-42 3,-19 17,-29 43,-48 8,-6 18,-13 28,-21 21,-16 44,-32 68,-47 24,-16 49,-31 76,-46l0 0c28,-15 54,-28 78,-39 24,-10 46,-18 65,-24l0 0c20,-5 38,-8 54,-8l0 0c17,0 32,3 45,9l0 0c4,1 7,3 10,5 3,2 6,4 9,7l0 0c3,3 5,5 8,8l0 0c2,3 4,6 6,10l12 19c-1,-4 -2,-8 -4,-12l0 0c-5,-9 -12,-18 -22,-26 -10,-9 -24,-17 -40,-25 -15,-7 -33,-13 -52,-17 -20,-5 -42,-8 -67,-9 -6,-1 -12,-1 -19,-1zm96 64c-9,1 -18,3 -27,6l-1 0c-17,5 -38,12 -60,23 -23,10 -49,22 -76,38l0 0c-26,14 -51,28 -74,44 -24,15 -46,30 -66,46 -12,9 -21,16 -29,21 -19,15 -30,22 -31,28 -1,8 0,14 3,17l0 0c3,4 10,7 18,11 24,11 64,13 122,5 61,-8 140,-27 240,-57l0 0c44,-14 103,-22 158,-31 14,-2 28,-4 40,-6 11,-2 23,-4 35,-6 28,-5 55,-8 82,-9 26,-2 52,-1 78,0 25,2 48,6 70,11 21,5 41,11 59,19 16,8 30,17 41,28l0 0c11,11 20,23 25,37l0 0c6,14 8,29 6,44 -2,14 -7,29 -15,44 -13,25 -34,44 -62,59 -27,14 -60,23 -101,28 -42,5 -89,6 -139,2 -42,-4 -87,-12 -133,-24 -18,16 -28,26 -37,35l0 1 -7 6 0 0c-6,6 -10,11 -14,16l0 0c-4,4 -6,7 -8,10l0 0c-1,3 -2,5 -2,6 0,1 1,2 2,3l0 0c1,3 4,5 8,8l0 0c4,3 10,6 17,9 19,9 39,15 61,20 23,4 47,6 73,5 62,0 123,-4 184,-11 60,-7 121,-18 182,-33 132,-32 315,53 343,66l0 0 2 1 0 0c1,1 3,2 5,3l0 0c1,1 3,2 4,3l3 2 1 2 0 0 1 1 1 2c2,7 -5,26 -15,45 -9,16 -18,33 -22,38l0 0c-3,4 -6,6 -9,7l-4 2 -4 -1c-16,-3 -36,-11 -61,-19 -64,-23 -155,-56 -223,-36 -65,18 -134,30 -202,35 -70,5 -141,4 -207,-5 -37,-4 -69,-12 -98,-23 -28,-10 -53,-23 -76,-38 -54,-35 -68,-71 -84,-112l-2 -5c-9,-23 -11,-46 -8,-69 2,-22 10,-45 23,-68 3,-6 7,-12 11,-18 -92,27 -171,44 -236,51 -69,6 -124,1 -163,-18 -25,-11 -45,-25 -62,-41 -16,-17 -28,-35 -36,-57 -8,-21 -10,-43 -8,-65 3,-22 10,-45 23,-68l0 0c5,-10 10,-18 16,-27l465 -41zm389 160l33 15 -68 2c-26,1 -60,6 -102,15 -42,10 -93,24 -151,43l0 0 -43 13c-2,2 -5,5 -7,7l0 0c-14,13 -25,28 -34,44 -11,19 -17,38 -20,57 -2,18 0,36 7,54l2 5c14,36 26,68 72,97 21,13 44,25 70,35 26,10 56,17 90,22 65,8 133,9 201,4 67,-5 133,-16 196,-34 78,-22 175,12 243,37 18,6 34,12 46,15 4,-7 10,-17 15,-28 5,-8 10,-13 13,-16 -30,-13 -202,-93 -323,-64 -62,16 -124,26 -186,34 -62,7 -124,11 -186,11 -29,1 -55,-1 -79,-6 -25,-5 -48,-12 -69,-22 -9,-4 -16,-8 -22,-12l0 0c-7,-5 -12,-10 -16,-15l0 0c-4,-6 -7,-13 -7,-21 0,-6 2,-13 6,-20l0 0c2,-5 6,-10 11,-16l0 0c4,-5 9,-11 16,-18l6 -6 1 0c10,-11 22,-23 45,-43l6 -6 1 1 22 -18c32,-27 65,-49 98,-69 33,-19 66,-36 100,-49 34,-12 63,-21 87,-24 26,-4 47,-2 62,5 7,3 12,8 17,13 4,6 7,13 9,20 1,7 2,15 1,22l0 0c-1,7 -4,14 -8,21 -11,21 -30,40 -55,55 -24,15 -54,27 -91,36 -37,10 -73,14 -108,14l-7 -1c5,1 11,2 16,2 47,4 92,3 132,-2 37,-4 68,-13 91,-25 23,-12 39,-27 49,-45 6,-12 10,-23 11,-34 1,-10 0,-19 -4,-29l0 0c-3,-9 -9,-18 -17,-26l0 0c-9,-8 -20,-15 -33,-21 -16,-8 -34,-14 -53,-18 -20,-5 -42,-8 -66,-10 -6,0 -13,0 -20,-1zm-280 -119l0 -2 -31 -10c-10,-3 -21,-5 -30,-6l0 0c-10,0 -19,1 -28,3 -8,2 -15,5 -21,9 -5,4 -9,8 -12,14 -3,5 -4,9 -4,14 -1,5 0,9 2,14l0 0c3,5 6,10 10,14 5,4 10,8 17,11 8,3 16,6 24,6 8,0 16,-1 25,-4 8,-2 16,-7 22,-12l0 0c6,-5 12,-12 16,-19l0 0c6,-12 9,-22 10,-32zm113 290c22,5 45,7 68,8 33,0 66,-4 100,-13 34,-8 62,-19 83,-32 21,-13 35,-27 44,-44 2,-3 4,-7 4,-11l0 0c1,-3 0,-6 0,-10l-1 0c0,-3 -1,-6 -3,-8 -1,-1 -3,-3 -5,-4 -10,-4 -25,-5 -45,-2 -21,3 -48,10 -80,22 -32,13 -64,28 -96,47 -23,14 -46,29 -69,47z"/>
   </g>
   <path class="fil0" d="M5324 4333c26,14 48,37 64,67 32,61 -70,201 -92,270 -18,56 -17,90 -17,95 0,9 2,15 5,21 3,5 7,8 12,8 76,0 249,-179 444,-213 95,-16 37,9 78,-1 41,-10 -202,55 -237,76 -178,109 -215,253 -343,234 -35,-6 -47,-11 -68,-35 -20,-24 -31,-56 -31,-96 -1,-43 19,-103 58,-180 39,-78 116,-157 116,-184 -1,-13 -3,-22 -6,-29 -4,-7 -11,-12 -22,-18 -8,3 -17,5 -25,7 -9,1 -16,2 -24,2 -11,0 -20,-2 -26,-7 -6,-4 -9,-9 -9,-17 0,-7 4,-13 11,-19 7,-5 17,-7 29,-7 5,0 15,1 28,4 14,3 26,4 35,4 48,0 100,-54 156,-163 34,-67 64,-116 88,-148 47,-62 105,-117 176,-163 71,-46 120,-70 146,-70 4,0 6,1 8,3 3,2 4,4 4,7 0,4 -7,8 -19,13 -13,5 -22,9 -29,12 -64,35 -120,95 -167,179 -4,8 -8,14 -9,18 -61,107 -116,185 -166,233 -50,49 -107,81 -168,97zm-168 -266c-77,57 -291,101 -331,122 -42,23 59,-65 76,-73 69,-29 270,-97 338,-156 28,-25 43,-40 84,-79 50,-46 79,-70 88,-70 3,0 5,1 5,2 1,0 1,2 1,5 0,3 -6,12 -17,23 -61,65 -114,160 -159,286 -6,16 -14,39 -24,69 -80,226 -163,370 -207,450 -45,80 -91,160 -169,202 -122,67 -365,57 -448,57 -83,0 -201,-16 -263,-40 -67,-25 -97,-50 -155,-88 152,8 677,33 775,-49 47,-40 53,-74 100,-151 10,-17 24,-45 45,-83 97,-183 184,-326 261,-427z"/>
   <g>
    <path class="fil0" d="M5359 4338c4,4 8,8 12,12 12,12 22,26 31,43 26,49 -17,131 -54,201l0 0c-16,31 -31,60 -37,80 -17,53 -16,85 -16,91l0 0 0 0 0 0c0,3 0,6 1,8 0,2 1,3 1,4l1 1 0 0c28,-1 75,-32 133,-69 85,-55 191,-123 307,-143 70,-12 74,1 77,9l0 1c1,5 -3,-10 -1,-11l0 0 5 -1 14 -3 4 13c3,8 -2,14 -11,19l0 1 -5 1 -2 1c-4,1 -8,3 -13,4 -53,15 -193,55 -217,69 -72,44 -120,94 -161,137 -63,64 -109,112 -192,99l0 0c-19,-3 -32,-6 -44,-12l0 0c-12,-6 -22,-14 -33,-28 -12,-13 -21,-29 -27,-47 -6,-17 -9,-37 -9,-59 0,-23 5,-50 15,-82 10,-31 25,-66 45,-105 19,-39 48,-78 72,-110 23,-32 42,-58 42,-67 0,-5 0,-10 -1,-14l0 0c-1,-3 -2,-5 -3,-7 -1,-2 -2,-4 -4,-5l0 0c-2,-2 -3,-3 -5,-4 -3,1 -5,2 -8,2 -4,1 -9,2 -13,3l0 0c-5,1 -10,2 -14,2l0 0c-5,0 -9,0 -13,0 -7,0 -13,0 -19,-2l0 0c-6,-1 -11,-4 -15,-7 -6,-3 -10,-8 -12,-13l0 0c-3,-5 -4,-11 -5,-17 0,-7 2,-13 5,-18l0 0c3,-5 8,-9 13,-13l0 0c5,-4 11,-7 18,-8 6,-2 13,-3 20,-3 3,0 7,1 13,1 5,1 11,2 18,4l1 0c6,1 12,2 17,3 5,0 10,1 14,1 20,0 41,-12 64,-36 24,-26 51,-66 78,-119l0 0c17,-34 33,-63 48,-88 15,-25 29,-46 42,-62l0 0c23,-32 50,-62 80,-90 31,-28 64,-53 100,-77 36,-24 66,-41 91,-53l0 0c27,-13 48,-19 63,-19 4,0 7,0 10,1 3,2 6,3 9,6l0 0c2,2 4,4 6,7l0 0c1,3 2,7 2,10l0 1c0,7 -4,13 -11,19 -4,3 -10,6 -18,8l0 1c-6,2 -11,4 -15,6 -5,1 -9,3 -12,5 -30,17 -59,39 -85,68l-1 0c-26,29 -51,63 -74,104l0 0 -4 6c-2,5 -4,9 -5,11l-1 1c-30,54 -59,101 -87,140l0 0c-28,40 -55,73 -81,98 -26,25 -54,46 -83,62 -20,12 -40,21 -61,28zm-10 33c-10,-10 -21,-18 -33,-24l-33 -18c-5,-1 -11,-2 -16,-3 -7,-1 -13,-2 -17,-3 -4,0 -7,-1 -9,-1 -5,0 -9,1 -13,1 -2,1 -5,2 -7,4l0 0c-2,1 -3,2 -4,4l0 0c0,1 -1,1 -1,2 0,1 1,2 1,3l0 0c0,0 1,1 2,1l0 1c2,1 4,2 6,2l0 0c3,1 6,1 11,1 3,0 7,0 10,0 4,0 8,-1 11,-1l0 -1c4,0 8,-1 12,-2 4,-1 8,-2 12,-3l6 -2 5 3c6,3 12,6 16,10l0 0c5,4 9,8 12,13l0 0c3,5 5,11 6,17l0 0c1,6 2,13 2,20 0,19 -22,49 -48,85 -24,32 -51,69 -69,106 -20,38 -34,71 -43,100 -10,29 -14,53 -14,73 0,19 3,35 7,49 5,14 12,27 21,37 9,11 16,17 24,20l0 0c8,5 19,7 35,9l0 0c67,11 108,-32 164,-90 19,-20 40,-41 64,-62l-21 13c-64,41 -115,74 -152,74l0 0c-6,0 -11,-1 -16,-5l0 0c-3,-3 -7,-6 -9,-11 -3,-4 -4,-8 -6,-13 -1,-4 -1,-9 -1,-14l0 -1 0 0 0 0c0,-7 -1,-43 17,-100 8,-23 23,-53 40,-85l0 0c33,-64 72,-138 53,-173 -7,-14 -15,-26 -25,-36zm-56 3l0 0 0 0zm97 -89c-4,5 -8,9 -13,12 9,-4 18,-8 27,-13 27,-16 53,-35 77,-59 25,-23 51,-54 78,-92l0 0c27,-39 55,-84 85,-137 1,-3 3,-7 6,-12l3 -7 1 0c24,-43 50,-80 79,-110l0 0c13,-15 27,-28 42,-39 -13,7 -27,16 -42,26 -35,23 -67,47 -95,74 -29,26 -55,55 -78,86l0 0c-12,15 -25,35 -39,59 -15,25 -31,53 -48,86l0 0c-28,56 -56,98 -83,126zm-287 -172c-54,24 -124,44 -181,61 -42,12 -77,22 -89,29 -7,4 -12,5 -16,6l0 0c-24,1 -27,-10 -12,-30 2,-3 7,-8 12,-14 22,-22 66,-58 78,-63 15,-7 40,-16 68,-27l0 0c88,-34 216,-83 265,-126 17,-15 29,-26 44,-41 11,-10 23,-22 40,-38 25,-24 46,-41 60,-53 18,-14 31,-21 39,-21 2,0 4,0 6,1l0 -1c5,1 9,4 12,8 2,3 3,5 3,8 0,2 1,3 1,5l0 0c0,6 -3,12 -7,18 -4,5 -8,11 -15,17l0 0c-30,32 -57,70 -83,117 -26,46 -50,101 -72,163l-25 69c-77,220 -157,362 -203,444l-5 8c-22,41 -45,81 -73,118 -28,37 -61,69 -102,91 -114,62 -325,60 -427,59l-28 0 0 0c-43,0 -96,-5 -146,-12 -47,-7 -92,-17 -123,-29 -54,-21 -85,-41 -125,-68 -10,-7 -21,-14 -32,-22l-49 -31 58 3c75,4 245,12 406,9 160,-3 312,-17 358,-55 30,-25 42,-48 61,-83 9,-18 20,-39 35,-64 7,-10 15,-26 26,-46 5,-10 12,-22 19,-36 49,-92 95,-174 139,-245 29,-48 57,-91 83,-129zm-189 31c79,-23 185,-54 233,-90l86 -64 -65 86c-38,50 -78,111 -122,182 -43,71 -89,152 -138,244l0 0c-7,13 -13,25 -19,36 -10,20 -19,36 -26,48 -15,24 -26,44 -35,61 -20,38 -34,64 -68,93 -52,44 -211,59 -377,62 -130,2 -265,-3 -352,-6 32,21 59,37 104,55 29,11 71,20 116,27 49,7 100,12 142,12l0 0 28 0 0 0c99,1 305,3 412,-55 37,-20 67,-49 92,-83 26,-34 49,-74 71,-114l5 -9c45,-80 124,-221 201,-439l25 -69c22,-63 47,-119 74,-167 15,-28 32,-54 49,-77l-17 16c-16,15 -29,27 -39,37 -16,15 -28,27 -45,42 -54,47 -185,97 -275,132l0 0c-27,10 -50,19 -67,27 -5,2 -18,12 -33,25 12,-4 26,-8 40,-12z"/>
   </g>
   <path class="fil0" d="M6103 4613c-5,-13 -17,-24 -36,-32 -19,-9 -41,-13 -66,-13 -27,0 -57,10 -90,30 -33,20 -71,50 -114,92 -44,42 -75,77 -92,104 -17,27 -23,49 -17,65 3,8 8,13 17,17 8,3 20,5 35,5 32,0 68,-8 107,-25 39,-17 78,-40 116,-70 49,-38 86,-73 111,-104 25,-32 35,-55 29,-69zm35 -7l31 -54 210 -9 -133 238c-12,19 -20,35 -27,48 -6,13 -9,21 -8,24 2,4 5,8 11,11 6,2 12,4 19,4 21,0 83,-34 188,-100 26,-16 46,-29 61,-39 79,-50 140,-85 184,-107 43,-22 76,-32 97,-32 1,0 7,0 17,1 3,1 6,1 7,1 -45,14 -119,54 -222,121 -29,18 -52,33 -69,43 -12,8 -29,19 -51,34 -110,72 -202,108 -277,108 -39,0 -73,-6 -101,-18 -29,-12 -47,-28 -55,-47 -4,-12 -6,-23 -5,-33 1,-10 4,-21 10,-31 -40,42 -85,74 -134,95 -49,22 -100,33 -155,33 -56,0 -106,-9 -149,-28 -42,-18 -69,-42 -80,-72 -13,-33 -9,-64 12,-92 20,-29 58,-56 113,-82 56,-26 110,-46 163,-59 54,-14 104,-21 153,-21 47,0 86,6 118,16 32,11 56,26 72,47zm574 19c-17,10 -38,23 -63,40 -40,26 -65,39 -76,39 -4,0 -8,0 -12,-2 -3,-1 -6,-3 -8,-5 -2,-5 11,-15 38,-29 18,-10 33,-19 44,-26l56 -33c12,-8 24,-15 37,-24 12,-8 29,-19 50,-33l232 -9 -159 213c-19,26 -34,47 -44,63 -10,16 -14,26 -13,29 1,3 5,6 11,9 6,3 12,4 18,4 32,0 84,-28 154,-85 69,-56 145,-131 227,-224l258 -9 -166 240c-15,22 -25,39 -30,50 -6,11 -8,19 -6,24 1,2 4,4 8,5 4,2 9,2 16,2 18,0 42,-5 69,-17 27,-11 63,-31 109,-58 28,-17 67,-41 116,-70 142,-88 230,-132 263,-132 2,0 8,1 18,2 3,0 6,1 8,1 -47,14 -123,55 -226,123 -41,27 -74,48 -97,62l-4 3c-125,78 -225,118 -301,118 -44,0 -81,-7 -111,-20 -31,-13 -51,-30 -59,-52 -5,-13 -5,-29 1,-46 5,-18 22,-49 48,-92 -94,92 -163,150 -208,174 -44,24 -92,36 -144,36 -40,0 -75,-7 -104,-20 -29,-13 -48,-30 -56,-52 -7,-19 -3,-43 11,-71 14,-28 46,-71 95,-128zm1313 87c74,-57 141,-99 201,-127 60,-28 114,-42 162,-42 43,0 79,8 109,24 30,16 50,38 61,67 8,20 6,42 -7,65 -13,23 -43,56 -92,99 -6,5 -14,12 -24,20 -23,19 -33,32 -30,39 1,3 4,5 9,7 5,2 11,3 18,3 18,0 45,-9 83,-25 37,-17 81,-41 130,-71l34 -21c175,-108 280,-162 316,-162 1,0 7,0 16,1 4,1 7,1 9,1 -48,14 -138,64 -270,149l-22 15 -9 6c-140,91 -247,137 -321,137 -41,0 -77,-9 -110,-26 -33,-16 -54,-38 -65,-65 -7,-20 -6,-40 5,-60 10,-20 36,-47 75,-81 13,-10 29,-23 48,-38 34,-27 51,-42 49,-47 -1,-4 -4,-6 -8,-8 -4,-1 -9,-2 -18,-3 -54,0 -125,29 -212,87 -87,57 -178,135 -273,234l-285 8 122 -129c39,-42 67,-73 83,-95 17,-22 24,-37 21,-44 -1,-3 -3,-6 -7,-8 -3,-2 -7,-3 -12,-3 -13,0 -36,10 -69,31 -32,21 -55,31 -68,31 -2,0 -5,0 -7,-1 -3,-1 -4,-2 -5,-2 -1,-4 1,-8 6,-13 4,-5 13,-12 26,-20 51,-35 93,-60 129,-76 35,-16 65,-24 91,-24 26,0 50,6 71,19 22,14 37,31 45,53 6,15 8,30 7,46 -1,16 -5,32 -12,49zm1344 -99c-5,-13 -17,-24 -36,-32 -19,-9 -41,-13 -66,-13 -27,0 -57,10 -90,30 -33,20 -71,50 -114,92 -44,42 -74,77 -92,104 -17,27 -23,49 -17,65 3,8 9,13 17,17 8,3 20,5 35,5 32,0 68,-8 107,-25 39,-17 78,-40 116,-70 49,-38 86,-73 111,-104 25,-32 35,-55 29,-69zm35 -7l31 -54 210 -9 -133 238c-11,19 -20,35 -27,48 -6,13 -9,21 -8,24 2,4 5,8 11,11 6,2 12,4 19,4 21,0 79,-51 183,-117 34,-22 221,-154 277,-186 136,-79 136,-50 -132,123 -45,28 -80,56 -122,84 -109,71 -196,126 -271,126 -39,0 -73,-6 -101,-18 -29,-12 -47,-28 -55,-47 -4,-12 -6,-23 -5,-33 1,-10 4,-21 10,-31 -40,42 -85,74 -134,95 -49,22 -100,33 -155,33 -56,0 -106,-9 -149,-28 -42,-18 -69,-42 -80,-72 -13,-33 -9,-64 12,-92 20,-29 58,-56 113,-82 56,-26 110,-46 163,-59 54,-14 105,-21 153,-21 47,0 86,6 118,16 32,11 56,26 72,47z"/>
   <g>
    <path class="fil0" d="M5756 4889c20,-1 39,-4 58,-8 25,-5 50,-13 74,-24 24,-10 47,-23 69,-39l0 0c22,-16 42,-34 62,-55l40 -42 -28 51c-2,5 -4,10 -6,15 -1,4 -2,9 -3,14l0 0c0,4 0,9 1,13 1,6 3,11 5,16 3,9 8,17 16,24 9,7 20,13 34,19l0 0c13,6 28,10 45,13 16,3 34,4 53,4 36,0 77,-9 123,-26 45,-18 95,-45 149,-80l30 -20 21 -14 1 -1c9,-5 19,-11 30,-18 9,-6 20,-13 32,-21 -1,0 -3,0 -4,-1l0 0c-2,-1 -4,-2 -6,-3l0 0c-1,-1 -3,-2 -4,-4 -17,11 -35,22 -54,34 -7,4 -16,10 -26,17 -10,6 -22,13 -35,22l0 0c-52,33 -94,58 -126,75l0 0c-32,17 -54,25 -66,25 -4,0 -8,0 -11,-1l0 0c-4,-1 -8,-2 -11,-3l0 0c-4,-2 -7,-4 -9,-7l0 0c-3,-2 -5,-5 -6,-8l0 0c-1,-4 -1,-8 1,-14 2,-4 4,-9 7,-16 4,-7 7,-14 12,-22 4,-9 10,-18 15,-27l127 -225 -192 7 -30 50 -5 10 -7 -9c-8,-9 -17,-18 -28,-25 -11,-7 -25,-14 -40,-19l0 0c-16,-5 -33,-8 -52,-11 -20,-2 -41,-4 -64,-4 -24,0 -49,2 -73,5 -26,3 -51,8 -78,15 -26,7 -53,15 -80,25 -27,9 -54,21 -82,34 -27,13 -49,26 -68,39 -18,13 -32,27 -42,40 -10,13 -15,27 -17,41l0 0c-2,14 0,29 6,44l0 0c5,14 14,26 27,38l0 0c12,11 29,21 49,30 21,9 44,16 68,20 23,5 71,6 98,7l0 0zm36 -205l0 0 0 0zm345 -92l26 -44 2 -4 4 0 210 -8 14 -1 -7 12 -133 238 -1 0c-5,9 -10,18 -15,26 -4,8 -8,15 -11,21l0 1c-3,6 -5,11 -6,15l0 0c-1,2 -2,2 -2,2 1,1 2,2 3,3 1,1 2,3 5,4l0 0c2,1 4,1 7,2l0 0c3,1 5,1 8,1 9,0 29,-8 59,-24l0 0c31,-16 72,-41 125,-74l0 0c12,-8 24,-15 34,-22 10,-7 19,-13 26,-17l0 0c29,-19 56,-35 80,-49 3,-2 7,-5 11,-7l15 -9c14,-8 27,-15 39,-22l1 0 0 0 56 -34c5,-3 11,-7 18,-11l0 0c6,-4 12,-8 18,-12 6,-4 14,-9 24,-16l0 0 26 -18 2 -1 2 0 233 -8 16 -1 -9 13 -160 213 0 0c-9,12 -18,24 -25,35 -7,10 -13,19 -18,27 -5,8 -8,14 -10,19 -2,2 -2,3 -2,4l1 0c1,1 3,3 5,4l0 0c3,1 5,2 8,2l0 0c2,1 5,1 7,1 15,0 35,-7 59,-20 25,-14 55,-35 90,-63 35,-28 71,-61 109,-98 38,-37 77,-79 117,-125l3 -3 3 0 258 -8 15 -1 -8 13 -166 239 0 0c-8,11 -14,20 -19,28 -5,8 -9,15 -11,21l0 0c-3,5 -4,9 -5,13l0 0c-1,2 -1,3 -1,4 1,1 2,1 3,2l1 0c1,0 3,1 5,1 2,0 5,1 8,1 9,0 19,-2 30,-5 11,-2 23,-6 36,-12 13,-6 29,-13 47,-23 18,-10 38,-21 61,-35l0 0 53 -32 0 0 63 -38c32,-20 62,-38 89,-53 2,-3 6,-6 10,-9l0 0c5,-4 10,-7 17,-11 25,-18 49,-33 70,-46 22,-13 41,-23 59,-31 18,-8 35,-15 51,-19 16,-4 30,-6 44,-6 13,0 27,2 39,5 13,4 25,9 37,16 11,7 21,15 29,24 8,10 14,20 19,32l0 0c3,8 5,16 6,24 1,8 2,17 1,26l0 0c0,8 -2,17 -4,25l0 2c29,-23 58,-42 85,-60l0 0c34,-21 67,-39 97,-53 30,-14 59,-25 87,-32 27,-7 53,-10 78,-10 22,0 42,2 61,6 19,4 36,10 52,18l0 0c15,9 29,19 39,31 11,11 19,25 25,40 5,12 6,23 5,36 -1,12 -6,24 -12,36 -7,12 -18,27 -34,43 -15,17 -35,36 -60,58l0 0 -11 9 0 0c-3,3 -8,7 -13,11l0 0c-11,9 -19,17 -24,23 -3,4 -4,6 -4,7l0 0c0,0 0,0 1,1l0 0c0,0 2,1 3,1l1 1c2,0 4,1 6,1 3,1 6,1 9,1 8,0 19,-2 32,-6 13,-4 29,-10 47,-18 19,-9 39,-19 61,-31 22,-11 45,-25 69,-40l0 0 34 -20 0 0c66,-41 122,-75 168,-100 15,-10 33,-19 52,-28l0 0c8,-4 15,-7 23,-11 19,-9 35,-15 48,-19l12 -5c28,-10 55,-18 82,-25 26,-7 53,-12 79,-15 25,-4 51,-5 75,-5 24,0 45,1 66,4 20,2 38,6 55,12l0 0c16,5 31,12 43,20 10,6 18,13 25,20l26 -44 2 -4 4 0 210 -8 14 -1 -7 12 -133 238 0 0c-6,9 -11,18 -15,26l0 0c-5,8 -9,15 -12,21l0 1c-3,6 -5,11 -6,15 -1,2 -2,2 -1,2l0 0c0,1 1,2 2,3 1,1 3,3 5,4 2,1 4,2 7,2 3,1 5,1 8,1 10,0 34,-17 73,-44 28,-20 63,-44 106,-72l0 0c12,-8 44,-29 82,-56 69,-47 159,-109 196,-130 39,-23 67,-37 81,-41 15,-5 22,-2 19,10 0,4 -6,11 -15,20 -27,24 -93,72 -210,147 -24,16 -45,31 -65,45 -19,13 -37,26 -56,39l0 0c-55,36 -105,68 -150,91 -46,23 -87,37 -126,37 -20,0 -38,-2 -56,-5 -17,-3 -33,-8 -48,-14l0 0c-15,-6 -28,-13 -38,-22 -10,-8 -17,-18 -21,-29 -2,-7 -4,-13 -5,-19l0 0c-1,-6 -1,-12 -1,-18l0 0 0 -2c-13,12 -27,23 -41,33 -23,17 -47,30 -72,41 -25,11 -50,20 -77,25 -26,6 -53,9 -81,9 -28,0 -55,-3 -81,-8 -25,-4 -49,-11 -71,-21 -22,-9 -40,-20 -54,-33 -14,-13 -24,-27 -31,-43 -6,-18 -9,-35 -6,-52l1 -6 -5 4 -23 14 -9 7 0 0c-70,45 -133,80 -187,103 -54,23 -100,35 -138,35 -21,0 -41,-3 -60,-7 -19,-4 -37,-11 -54,-20l0 0c-17,-8 -31,-19 -42,-30 -12,-12 -20,-25 -26,-40l0 0c-4,-11 -6,-22 -5,-33 1,-11 4,-22 10,-33l0 0c6,-11 15,-23 28,-37l0 0c13,-14 29,-29 49,-46l0 0 6 -5 0 0c11,-8 25,-19 43,-33l0 -1c16,-13 29,-23 37,-31 5,-5 9,-6 9,-6l0 0c-1,-1 -1,-2 -1,-2l0 0c-1,-1 -2,-1 -3,-2 -1,0 -3,-1 -5,-1 -3,0 -6,-1 -9,-1l0 0c-27,0 -57,7 -92,21 -35,14 -74,36 -117,64l0 0c-43,29 -87,62 -133,101 -45,39 -91,84 -138,133l-2 2 -3 0 -286 8 -18 0 13 -13 121 -129 0 0c19,-21 36,-39 50,-55 14,-16 25,-29 33,-40l0 0c8,-10 14,-19 17,-26l0 0c2,-5 3,-8 3,-10 -1,-1 -1,-2 -2,-3l0 0c0,0 -1,-1 -1,-1l-1 0c-1,-1 -2,-1 -3,-2 -2,0 -3,0 -5,0 -6,0 -13,2 -24,7l-6 3 -2 1c-9,5 -18,10 -27,15l-5 3 0 0c-11,7 -22,13 -30,18 -23,14 -47,29 -72,46 -20,12 -36,23 -51,33 -17,11 -33,21 -46,29l-4 2 0 1c-63,39 -120,69 -170,88 -51,20 -96,30 -135,30 -22,0 -43,-1 -62,-5 -19,-3 -36,-8 -52,-15 -17,-7 -30,-15 -40,-24l0 0c-11,-10 -19,-21 -24,-33l0 0c-2,-7 -4,-15 -3,-24l0 0c0,-8 1,-17 4,-27l0 0c3,-9 9,-21 17,-37l5 -8c-31,29 -59,53 -83,74 -35,29 -64,50 -87,62 -23,13 -47,22 -71,28 -25,6 -50,9 -77,9 -20,0 -39,-1 -57,-5 -18,-3 -35,-8 -50,-15l0 0c-15,-7 -28,-15 -38,-24 -10,-10 -18,-21 -22,-33l0 0c-4,-10 -5,-22 -3,-35 2,-13 6,-27 14,-41l0 0c7,-15 19,-33 35,-55 8,-11 17,-22 27,-34 -8,4 -16,9 -25,14 -13,9 -25,16 -35,22 -11,7 -23,14 -35,22 -14,9 -27,17 -39,25 -12,7 -22,14 -30,19l-21 14 -1 0 -29 20 0 0c-55,36 -106,63 -153,81 -47,18 -90,28 -128,28 -20,0 -39,-2 -56,-5 -17,-3 -34,-8 -48,-14l0 0c-16,-6 -28,-13 -38,-22 -10,-8 -17,-18 -21,-29 -2,-7 -4,-13 -5,-19 -1,-6 -1,-12 -1,-18l0 0 0 -2c-13,12 -27,23 -41,33l0 0c-23,17 -47,30 -72,41 -25,11 -50,20 -77,25 -26,6 -53,9 -81,9 -28,0 -55,-3 -81,-8 -25,-4 -49,-11 -71,-21 -22,-9 -40,-20 -54,-33l0 0c-14,-13 -25,-27 -31,-43l0 0c-6,-18 -9,-35 -6,-52 2,-17 8,-33 19,-48 11,-15 26,-29 46,-43 19,-14 43,-28 71,-41l0 0c28,-14 56,-25 83,-35 28,-10 55,-18 81,-25 27,-7 54,-12 80,-15 25,-4 50,-5 75,-5 24,0 46,1 66,4 20,2 38,6 55,12l0 0c16,5 31,12 43,20 9,6 18,13 25,20zm447 88l-11 7c-3,2 -5,3 -7,5 -1,1 -3,1 -4,1l0 1 2 1 0 0c1,0 3,1 4,1 2,0 3,1 5,1 4,0 12,-3 24,-9l6 -4c13,-8 25,-15 37,-22l5 -4 0 0c12,-8 24,-15 34,-22l0 0c11,-7 20,-13 28,-18l15 -9c-13,5 -28,12 -45,20l0 0c-12,6 -25,13 -39,21 -6,3 -12,7 -18,11 -8,4 -16,8 -25,13l0 0c-4,2 -7,4 -11,6zm155 -93c13,-3 23,-5 32,-5l0 0 1 0 5 0 0 0 11 2 5 0 0 0 3 0 44 2 -42 13c-22,7 -52,20 -88,40l-1 1c-20,24 -38,45 -51,64 -16,21 -27,39 -34,53l0 0c-7,13 -11,25 -13,36l0 0c-2,10 -1,20 2,28l0 0c4,10 10,19 19,27 8,8 20,15 33,21l0 0c14,6 30,11 46,14 17,3 36,5 55,5 25,0 50,-3 73,-9 23,-6 46,-15 68,-26 21,-12 50,-32 84,-61 35,-29 75,-66 121,-111l44 -43 -32 52c-13,22 -23,40 -31,55 -8,15 -13,27 -16,35 -2,8 -4,16 -4,23l0 0c0,6 1,12 3,18l0 0c4,10 10,19 19,26l0 0c9,9 21,16 36,22 14,6 31,11 49,14 18,3 38,5 59,5 37,0 80,-10 129,-29 50,-19 106,-49 167,-87l4 -3 1 0c12,-8 28,-18 46,-29 15,-11 33,-22 50,-33 10,-7 20,-13 30,-19l-2 -1 0 0c-1,0 -3,-1 -4,-2l0 0c-2,-1 -4,-2 -5,-4 -22,13 -47,28 -73,44l0 0 -63 38 0 0 -53 33 0 0c-23,13 -43,25 -62,35 -18,10 -34,18 -48,23 -14,6 -27,11 -39,14 -12,3 -23,4 -33,4 -4,0 -7,0 -10,-1 -4,0 -7,-1 -9,-2 -3,-1 -5,-2 -7,-3l0 0c-2,-2 -4,-4 -5,-7l0 0c-1,-3 -2,-8 0,-14l0 0c1,-4 3,-10 6,-16 3,-6 7,-13 12,-22 5,-8 11,-18 19,-28l157 -227 -239 7c-40,46 -79,87 -116,124 -39,38 -75,71 -111,99 -35,29 -65,50 -91,65 -27,14 -49,22 -67,22 -3,0 -7,-1 -11,-2l0 0c-3,0 -7,-2 -10,-3 -4,-2 -7,-4 -9,-5 -3,-3 -5,-5 -6,-8l0 0c-1,-4 -1,-9 2,-16 3,-5 6,-12 12,-20 5,-8 11,-17 18,-28 7,-10 16,-22 26,-36l0 0 149 -199 -214 7 -24 17 0 0 -17 11zm16 12c-4,1 -9,2 -15,4l-4 5c6,-3 13,-6 19,-9zm999 28c-24,12 -51,27 -82,44l-1 2 0 0c1,0 2,0 3,0 6,0 14,-2 24,-7 3,-2 7,-3 11,-6 12,-7 24,-14 35,-20 11,-7 21,-13 30,-17 18,-10 34,-18 49,-25 -16,5 -40,14 -69,29zm40 -35c21,-8 36,-12 47,-12 2,0 9,0 19,1l0 0 4 1 3 0 45 2 -43 13c-13,4 -27,10 -44,17l2 1 0 1 0 0c3,1 5,3 6,5 2,2 3,4 4,7l0 0c2,5 1,13 -3,22l0 0c-4,8 -10,17 -19,28l0 0c-8,12 -20,25 -34,42 -13,15 -30,33 -50,54l0 0 -108 116 263 -7c47,-49 93,-93 137,-131 46,-40 91,-74 135,-103l0 0c44,-29 83,-51 119,-65 37,-15 69,-22 98,-22l0 0c4,0 8,0 11,1l0 0c4,0 7,1 9,2 3,1 6,3 8,5l0 0c2,2 3,4 4,7l0 0c2,6 -2,13 -13,24 -8,8 -21,18 -38,32 -15,12 -30,24 -42,33l0 0 -6 5c-20,17 -36,32 -48,45l0 0c-12,13 -20,24 -25,33l0 0c-5,9 -8,18 -8,27 -1,9 0,18 4,27l0 0c4,12 12,24 22,34 10,10 23,19 38,28l0 0c16,8 33,14 50,18 18,4 37,6 57,6 36,0 80,-11 132,-34 53,-22 115,-56 184,-101l10 -7 22 -14 0 0 21 -14c3,-6 7,-13 11,-19l2 -2c-29,17 -62,37 -97,59l0 0 -34 20 0 1c-24,15 -48,28 -70,40 -22,12 -42,22 -61,31 -19,8 -36,14 -50,19l0 0c-14,4 -26,6 -36,6 -4,0 -8,0 -11,-1 -4,0 -7,-1 -10,-2 -3,-1 -6,-2 -8,-4l0 0c-3,-2 -5,-5 -6,-8l0 0c-2,-6 0,-13 7,-22 5,-7 14,-15 26,-25l0 0c5,-4 9,-7 13,-11l0 0 11 -9 0 0c24,-21 44,-40 59,-56 15,-16 25,-30 31,-40 6,-11 9,-21 10,-31 1,-10 0,-19 -3,-29 -5,-13 -13,-25 -22,-35 -10,-10 -22,-19 -36,-27 -14,-7 -30,-13 -47,-17 -18,-4 -37,-6 -58,-6 -23,0 -48,4 -75,10 -26,7 -54,17 -84,31 -29,14 -61,31 -94,52l0 0c-34,21 -69,46 -105,74l-23 18 11 -27c3,-8 6,-16 8,-24 2,-7 3,-15 4,-22 0,-8 0,-15 -1,-23 -1,-7 -3,-14 -6,-21l0 0c-4,-10 -9,-19 -16,-27l0 0c-7,-8 -15,-15 -26,-21l0 0c-10,-6 -21,-11 -32,-14 -11,-3 -23,-5 -35,-5 -13,0 -26,2 -40,6 -15,4 -31,10 -48,18l0 0c-10,4 -21,10 -32,16zm70 -10l0 0 0 0zm1028 53c-12,7 -26,14 -41,22 -6,4 -12,8 -18,12 -13,10 -24,20 -33,29 43,-27 80,-49 112,-67 25,-13 46,-24 65,-33l-5 2c-16,6 -32,12 -48,19 -10,5 -20,10 -32,16zm131 -53l44 2 -45 13c-23,7 -58,23 -102,48 -39,21 -86,50 -141,85 -2,6 -4,13 -5,20l0 0c-2,14 0,29 6,44 5,14 14,26 27,38 12,11 29,21 49,30 21,9 44,16 68,20 23,5 48,7 75,7 20,-1 62,-4 81,-8 25,-5 50,-13 74,-24 24,-10 47,-23 69,-39 22,-16 43,-34 62,-55l40 -42 -27 51c-3,5 -5,10 -7,15l0 0c-1,4 -2,9 -3,14l0 0c0,4 0,9 1,13 1,5 3,11 5,16 3,9 9,17 17,24 8,7 19,13 33,19l0 0c13,6 28,10 45,13 16,3 34,4 53,4 36,0 75,-13 119,-35 44,-23 93,-54 148,-90l0 0c19,-12 37,-25 56,-38 21,-15 42,-30 65,-46 114,-73 179,-120 206,-144 -14,6 -37,18 -65,34 -36,21 -125,83 -194,130 -39,27 -71,49 -83,56l0 0c-42,27 -78,52 -105,72 -41,28 -67,46 -82,46 -4,0 -7,0 -11,-1l0 0c-4,-1 -8,-2 -11,-3 -4,-2 -7,-4 -9,-7 -3,-2 -5,-5 -6,-8l0 0c-1,-4 -1,-8 1,-14 2,-4 4,-9 7,-16 4,-7 8,-14 12,-22l0 -1c4,-8 9,-16 15,-26l127 -225 -192 7 -30 50 -5 10 -7 -9c-8,-9 -17,-18 -28,-25 -11,-7 -25,-14 -40,-19l0 0c-16,-5 -33,-8 -52,-11 -20,-3 -41,-4 -64,-4 -24,0 -48,2 -73,5 -25,3 -51,8 -78,15 -13,3 -26,7 -40,11l0 0zm-715 89l0 0 0 0zm-514 -79c-8,4 -17,9 -26,15l26 -15zm1568 -3l0 0 0 0z"/>
   </g>
   <path class="fil2" d="M4178 5016c1910,-6 3741,63 5687,-30 -31,91 -2185,155 -2671,180 -705,37 -2000,37 -2690,9 -154,-7 -279,-97 -326,-159z"/>
   <path class="fil2" d="M5663 4404c757,11 1875,69 2387,-48 186,-42 286,-315 418,-540 -242,68 -280,355 -540,416 -425,100 -879,92 -1521,91 -117,-1 -708,19 -744,81z"/>
   <path class="fil2" d="M9880 3901c236,541 -165,485 -290,506 -246,25 -915,45 -1051,-21 -139,-68 124,-373 226,-587 116,237 -217,447 -27,492 283,68 503,69 829,65 101,2 317,-63 279,-477 -2,-31 -2,-45 34,22z"/>
   <path class="fil2" d="M10400 4647c30,-53 63,-61 161,-75 -100,-87 -215,-82 -274,-13 -29,34 -48,70 -47,109 3,94 116,171 238,176 -123,-115 -95,-169 -78,-197z"/>
   <path class="fil2" d="M10537 4256c43,-44 69,-40 168,-29 -87,-101 -202,-113 -270,-53 -34,30 -58,63 -62,102 -10,94 90,186 210,208 -125,-121 -71,-202 -46,-228z"/>
   <path class="fil2" d="M10322 3926c-69,-72 -96,-115 -170,-182 0,5 24,118 43,162 52,119 84,132 100,144 80,61 234,41 335,-28 -196,14 -283,-70 -308,-96z"/>
   <path class="fil0" d="M9993 4587c-34,17 -70,39 -108,66 -38,27 -60,41 -67,41 -4,0 -6,-1 -8,-3 -2,-2 -2,-4 -2,-6 1,-5 14,-15 40,-32 12,-7 21,-13 28,-18l52 -33c6,-4 14,-9 25,-16 40,-26 66,-44 75,-53 5,-4 10,-10 17,-18 14,-15 26,-23 35,-23 5,0 8,1 11,4 4,3 5,5 4,8 0,4 -8,11 -24,22 -15,11 -23,21 -25,29 -1,7 9,27 29,59 21,33 28,67 20,104 -10,50 -62,126 -113,148 -49,22 -103,31 -151,31 -37,0 -67,-8 -89,-23 -22,-15 -31,-34 -27,-56 3,-14 12,-26 26,-36 15,-10 31,-15 49,-15 16,0 28,4 36,11 8,8 10,19 7,32 -2,10 -8,19 -19,28 -12,8 -23,12 -34,12 -4,0 -8,0 -11,-1 -3,0 -6,-1 -9,-1 6,6 13,11 20,14 7,3 16,5 25,5 39,0 76,-23 109,-69 33,-45 58,-106 73,-182l6 -29z"/>
   <path class="fil0" d="M9982 4601c-12,7 -24,14 -37,22 -18,11 -37,23 -55,36 -19,14 -35,24 -46,31 -13,8 -21,12 -26,12 -3,0 -5,-1 -7,-1 -2,-1 -5,-2 -6,-4 -2,-2 -4,-4 -4,-7l0 0c-1,-2 -1,-4 0,-7 0,-4 5,-9 13,-16l0 0c7,-5 17,-12 30,-20l0 -1 16 -9 0 0 12 -8 51 -33 25 -16c21,-14 37,-25 50,-33 12,-9 20,-15 25,-19l0 0c4,-4 9,-9 14,-16l0 0 2 -2 0 0c8,-8 15,-15 21,-19 8,-4 14,-7 20,-7 6,0 12,2 16,6 3,2 5,4 6,7l0 0c1,3 1,6 1,9 -1,3 -4,7 -9,12l0 0c-4,4 -10,9 -18,14 -7,6 -12,10 -16,15 -4,4 -6,7 -6,9l0 0c0,2 1,7 5,16l1 0c4,9 12,22 22,38l0 0c11,17 18,35 21,53 4,18 4,38 0,57 -6,27 -23,61 -46,91 -21,27 -46,51 -72,62 -24,11 -49,18 -74,24 -27,5 -54,8 -80,8 -38,0 -70,-8 -93,-25 -13,-8 -21,-18 -26,-28 -6,-11 -7,-23 -4,-35 1,-9 5,-16 10,-23 5,-7 11,-13 19,-19 8,-5 16,-9 25,-12l0 0c9,-3 18,-4 28,-4 9,0 16,1 23,3 7,3 13,6 18,11 5,5 8,11 10,17 2,7 1,14 0,22l0 0c-1,6 -4,12 -8,17 -4,5 -9,10 -15,15 -6,4 -12,8 -18,10 -4,1 -7,2 -11,3 1,0 3,1 4,1l0 0c4,0 8,1 12,1 18,0 36,-6 53,-16 17,-11 34,-27 50,-49l0 0c16,-23 30,-49 42,-78 12,-30 22,-64 29,-101l3 -14zm-45 9c18,-12 35,-21 53,-30l14 -7 -3 16 -6 29c-8,38 -18,73 -31,104 -12,30 -27,58 -44,81 -17,23 -35,41 -54,53 -20,12 -40,18 -61,18 -5,0 -10,0 -15,-1 -4,-1 -9,-2 -13,-4l0 0c-4,-2 -8,-4 -12,-7l0 0c-4,-2 -7,-6 -11,-9l-18 -20 26 7 4 1 4 1 0 0c1,0 3,0 4,0l0 0 6 0c5,0 9,-1 14,-2 5,-2 10,-5 15,-9 5,-3 9,-7 12,-11 2,-4 4,-7 5,-11 1,-6 1,-11 0,-15 -1,-4 -3,-7 -6,-10 -3,-3 -7,-5 -12,-7 -5,-2 -11,-3 -18,-3 -8,0 -16,2 -23,4l0 0c-8,2 -15,5 -21,10 -7,4 -12,9 -16,15 -3,5 -6,11 -7,17 -2,9 -1,18 3,25 3,8 10,16 20,23l0 0c21,14 50,21 85,21 25,0 51,-2 77,-8 24,-4 48,-12 71,-22l0 0c23,-10 46,-32 66,-57 21,-28 37,-60 42,-85 4,-18 4,-35 1,-51 -3,-16 -9,-32 -19,-48l0 0c-11,-16 -19,-30 -23,-40l0 0c-6,-11 -8,-20 -7,-25 1,-5 4,-11 9,-16 5,-6 11,-11 19,-17l0 0c7,-6 13,-10 17,-13 2,-3 3,-4 4,-4 -1,0 -1,-1 -1,-1l-1 0c-1,-2 -3,-2 -6,-2 -3,0 -6,1 -11,4l0 0c-5,4 -12,9 -18,17l0 0 -2 2 0 0c-7,7 -12,12 -15,16l-1 0c-5,5 -14,11 -26,20 -13,9 -30,20 -50,34l-25 16 -51 33 -13 8 0 0 -16 10 0 0c-12,8 -22,14 -28,19l0 0c-5,4 -7,6 -8,7 0,0 1,0 2,0 2,0 8,-3 18,-9 11,-7 26,-17 45,-30 19,-14 38,-26 56,-37z"/>
   <path class="fil3" d="M26 6074l110 0 0 887 1021 -886 4 -1 131 0 4 10 -1111 969 1407 1473 -160 0 -1292 -1347 0 1347 -120 0 0 -2452 6 0zm3279 982l0 1470 -116 0 0 -345c-61,114 -149,205 -264,273 -123,72 -254,108 -394,108 -214,0 -398,-76 -551,-228 -76,-76 -134,-159 -172,-250 -38,-92 -57,-190 -57,-296 0,-212 76,-394 229,-546 77,-76 161,-133 253,-171 92,-38 191,-57 298,-57 140,0 274,37 402,111 64,37 118,81 163,130 38,42 69,88 93,139l0 -344 116 0 0 6zm-1438 735c0,90 17,175 50,253 33,78 82,150 148,216 67,66 139,116 217,149 79,33 163,49 254,49 91,0 175,-16 253,-49 77,-33 148,-83 213,-149 64,-66 113,-138 145,-217 32,-78 48,-163 48,-253 0,-91 -16,-176 -49,-255 -32,-78 -81,-151 -146,-218 -65,-66 -136,-116 -214,-150 -77,-33 -161,-50 -252,-50 -90,0 -174,17 -252,51 -78,33 -150,84 -216,151 -67,67 -116,140 -149,219 -33,78 -50,163 -50,253zm3000 -741l111 0 0 1476 -117 0 0 -277c-113,209 -300,313 -560,313 -92,0 -176,-16 -254,-48 -77,-31 -147,-79 -209,-143 -62,-63 -109,-133 -141,-211 -31,-77 -46,-161 -46,-252l0 -858 116 0 0 858c0,148 52,277 156,386 52,55 110,96 173,123 63,28 131,41 205,41 148,0 278,-54 391,-164 113,-109 169,-238 169,-386l0 -858 6 0zm566 1476l-110 0 0 -1476 117 0 0 276c113,-208 299,-312 559,-312 92,0 177,16 254,47 77,32 147,80 210,143 62,64 109,134 140,212 31,77 47,161 47,252l0 858 -117 0 0 -858c0,-148 -52,-277 -156,-387 -52,-54 -109,-95 -172,-123 -63,-27 -132,-41 -206,-41 -148,0 -278,55 -390,165 -113,109 -169,238 -169,386l0 858 -7 0zm3068 -1470l0 1470 -116 0 0 -345c-61,114 -149,205 -264,273 -123,72 -254,108 -394,108 -214,0 -398,-76 -551,-228 -76,-76 -134,-159 -172,-250 -38,-92 -57,-190 -57,-296 0,-212 76,-394 229,-546 77,-76 161,-133 253,-171 92,-38 191,-57 298,-57 140,0 274,37 402,111 64,37 118,81 163,130 38,42 69,88 93,139l0 -344 116 0 0 6zm-1438 735c0,90 17,175 50,253 33,78 82,150 148,216 66,66 139,116 217,149 79,33 163,49 254,49 91,0 175,-16 253,-49 77,-33 148,-83 213,-149 64,-66 113,-138 145,-217 32,-78 48,-163 48,-253 0,-91 -16,-176 -49,-255 -32,-78 -81,-151 -146,-218 -65,-66 -136,-116 -214,-150 -77,-33 -161,-50 -252,-50 -90,0 -174,17 -252,51 -78,33 -150,84 -217,151 -66,67 -115,140 -148,219 -33,78 -50,163 -50,253zm2141 -677c-55,0 -103,18 -145,54 -21,18 -37,38 -48,60 -10,22 -15,46 -15,72 0,26 6,51 17,75 12,24 30,48 54,70 24,23 51,44 80,65 29,21 60,41 94,59 34,19 69,39 103,59 35,21 70,42 104,64 35,21 68,46 98,74 29,28 57,59 81,93 50,68 75,147 75,235 0,65 -12,125 -37,180 -24,55 -61,106 -110,151 -49,46 -103,80 -162,103 -59,23 -123,34 -192,34 -88,0 -170,-19 -245,-58 -38,-19 -71,-41 -99,-67 -28,-26 -50,-54 -68,-86l-1 -3 0 -157 12 -2c41,90 94,157 159,202 65,45 142,67 232,67 56,0 107,-8 154,-25 47,-17 89,-43 127,-77 38,-34 66,-70 85,-108 19,-38 28,-78 28,-120 0,-42 -6,-81 -18,-116 -12,-36 -30,-68 -54,-96 -24,-29 -50,-56 -80,-81 -29,-25 -61,-47 -95,-68l-207 -122c-34,-20 -66,-42 -96,-67 -29,-25 -57,-52 -81,-81 -25,-29 -44,-61 -56,-95 -13,-34 -19,-71 -19,-110 0,-40 8,-76 24,-109 16,-34 39,-64 71,-91 32,-27 68,-48 108,-61 41,-14 86,-20 135,-20 100,0 185,38 255,115l2 5 0 133 -11 4c-35,-52 -73,-90 -116,-116 -43,-25 -91,-38 -143,-38zm2004 -1040l114 0 0 2452 -120 0 0 -2452 6 0zm1273 2495l-30 0c-210,0 -390,-78 -541,-233 -75,-78 -132,-162 -170,-253 -37,-91 -56,-189 -56,-293 0,-209 76,-390 229,-542 153,-152 341,-228 564,-228 112,0 215,21 310,64 95,42 182,105 261,189l2 4 0 166 -12 4c-33,-50 -71,-94 -113,-134 -42,-39 -89,-73 -140,-102 -51,-29 -103,-51 -157,-65 -53,-15 -108,-22 -164,-22 -89,0 -172,16 -250,49 -77,33 -149,83 -215,149 -67,66 -116,139 -149,217 -33,79 -50,164 -50,255 0,92 17,177 50,255 33,79 82,152 149,218 66,66 138,115 215,148 78,33 161,50 250,50 56,0 111,-7 164,-22 54,-14 106,-36 157,-65 51,-29 98,-64 140,-103 42,-40 80,-85 113,-136l12 4 0 169 -2 4c-76,84 -162,147 -257,189 -94,42 -198,64 -310,64zm1571 -4l-29 0c-208,0 -389,-78 -543,-234 -77,-78 -135,-163 -173,-254 -39,-91 -58,-188 -58,-292 0,-208 76,-388 229,-540 153,-152 342,-228 568,-228 225,0 418,90 580,269l4 4 -1021 1008c68,54 135,95 201,122 67,28 132,42 196,42 65,0 126,-8 184,-23 58,-14 112,-36 163,-66 51,-30 98,-64 140,-104 42,-39 80,-84 113,-133l12 3 0 166 -2 4c-77,86 -163,150 -257,192 -94,43 -197,64 -307,64zm-34 -1444c-86,0 -166,16 -242,49 -75,33 -146,83 -212,149 -67,66 -116,137 -149,213 -33,76 -50,157 -50,243 0,86 15,167 43,242 28,73 69,141 124,204l937 -931c-65,-55 -135,-98 -209,-126 -76,-29 -157,-43 -242,-43z"/>
   <polygon class="fil1" points="11692,5052 14647,5052 14647,5168 11692,5168 "/>
   <polygon class="fil1" points="7,5052 2962,5052 2962,5168 7,5168 "/>
   <path class="fil3" d="M609 10742l-588 -1365 66 0 531 1229 249 -581 -278 -648 65 0 248 589 256 -589 50 0 -279 646 254 589 542 -1235 49 0 -596 1365 -284 -655 -285 655zm1394 -826l0 803 -58 0 0 -803 58 0zm-29 -197c-35,0 -52,-16 -52,-48 0,-33 17,-49 52,-49 35,0 52,16 52,49 0,32 -17,48 -52,48zm324 1000l-58 0 0 -805 58 0 0 163c61,-122 164,-183 311,-183 100,0 184,35 252,104 68,69 102,153 102,252l0 469 -57 0 0 -469c0,-82 -29,-154 -87,-214 -58,-61 -128,-92 -210,-92 -82,0 -155,31 -217,92 -63,60 -94,132 -94,214l0 469zm1168 -39l0 50c-85,0 -157,-29 -217,-85 -59,-57 -89,-129 -89,-218l0 -837 57 0 0 326 247 0 0 50 -247 0 0 461c0,73 24,133 73,181 48,48 107,72 176,72zm545 60l-16 0c-113,0 -212,-42 -296,-128 -84,-85 -126,-184 -126,-297 0,-114 42,-212 125,-295 84,-83 187,-124 310,-124 123,0 228,49 316,147l-561 554c77,62 152,93 223,93 72,0 136,-16 193,-49 56,-33 103,-77 140,-131l0 91c-85,93 -187,139 -308,139zm-18 -794c-95,0 -179,37 -253,110 -73,73 -110,158 -110,253 0,96 32,179 95,251l521 -517c-74,-65 -159,-97 -253,-97zm972 77c-53,-52 -110,-79 -174,-79 -63,0 -119,24 -167,72 -48,48 -72,103 -72,166l0 537 -58 0 0 -805 58 0 0 120c21,-41 54,-74 100,-100 45,-27 96,-40 152,-40 56,0 110,19 161,57l0 72zm1458 716l-20 0c-123,0 -237,-33 -343,-97 -107,-64 -190,-150 -252,-257 -61,-106 -92,-220 -92,-341 0,-189 69,-352 206,-489 137,-136 301,-205 492,-205 127,0 248,34 363,101l0 66c-112,-77 -233,-115 -363,-115 -176,0 -326,63 -451,189 -125,126 -188,277 -188,453 0,176 63,327 188,453 125,126 275,190 451,190 130,0 251,-38 363,-115l0 66c-109,67 -227,101 -354,101zm1216 -825l57 0 0 805 -57 0 0 -163c-61,122 -164,183 -311,183 -100,0 -184,-35 -252,-104 -68,-69 -102,-153 -102,-252l0 -469 57 0 0 469c0,82 29,153 87,214 58,61 128,91 210,91 82,0 155,-30 217,-91 63,-61 94,-132 94,-214l0 -469zm254 1163l0 -1163 57 0 0 197c33,-66 83,-118 152,-158 68,-39 139,-59 213,-59 118,0 219,42 302,125 83,82 124,182 124,297 0,116 -41,215 -124,298 -83,83 -184,125 -302,125 -71,0 -141,-20 -209,-59 -68,-38 -120,-91 -156,-156l0 553 -57 0zm54 -759c0,100 36,187 110,260 73,74 160,110 261,110 101,0 187,-36 258,-110 72,-73 108,-160 108,-261 0,-100 -36,-188 -108,-262 -73,-74 -159,-111 -259,-111 -100,0 -187,38 -260,112 -74,75 -110,162 -110,262zm2477 -458c0,-120 -39,-225 -118,-315 -79,-89 -183,-134 -313,-134 -130,0 -238,47 -324,141 -87,93 -130,207 -130,340l-56 0c0,-151 49,-277 147,-379 98,-101 220,-152 366,-152 146,0 264,50 353,149 90,99 134,216 134,352 0,197 -105,361 -316,494l-487 304 798 0 0 59 -984 0 624 -395c204,-129 306,-284 306,-464zm923 882l-27 0c-184,0 -344,-69 -478,-207 -134,-139 -201,-301 -201,-488 0,-186 68,-348 204,-485 136,-136 299,-204 490,-204 191,0 354,68 490,204 136,135 204,299 204,490 0,120 -31,233 -91,340 -61,106 -144,191 -250,254 -105,64 -219,96 -341,96zm623 -691c0,-176 -63,-327 -187,-453 -125,-126 -274,-189 -449,-189 -175,0 -324,63 -448,189 -124,126 -186,277 -186,453 0,176 62,326 186,451 124,126 273,188 448,188 175,0 324,-62 449,-188 124,-125 187,-275 187,-451z"/>
   <g>
    <line class="fil4" x1="1200" y1="3494" x2="1001" y2= "4212" />
    <polygon class="fil1" points="1241,3505 1042,4224 960,4201 1159,3482 "/>
    <path class="fil4" d="M897 3684c140,120 297,158 465,129"/>
    <path class="fil1" d="M924 3652c65,56 134,93 206,112 71,19 147,21 225,8l15 83c-91,16 -178,13 -262,-9 -84,-23 -164,-65 -239,-130l55 -64z"/>
    <path class="fil4" d="M1022 3575c87,75 184,98 289,80"/>
    <path class="fil1" d="M1050 3543c38,33 79,55 121,66 42,11 86,12 133,4l14 84c-58,10 -115,8 -169,-6 -54,-15 -106,-42 -154,-84l55 -64z"/>
    <path class="fil4" d="M881 3971c74,-30 159,-74 212,-85 37,38 91,123 131,180"/>
    <path class="fil1" d="M866 3932l0 0c22,-9 48,-21 74,-32 53,-24 104,-47 144,-56l23 -5 17 18 0 0c31,33 72,93 108,146 9,13 17,25 27,39l-70 48c-7,-10 -17,-24 -27,-39 -27,-41 -58,-87 -83,-117 -29,9 -67,26 -105,43 -24,11 -49,22 -76,33l-1 1 -1 0 -18 -48 -12 -31 0 0z"/>
    <line class="fil4" x1="478" y1="3681" x2="1001" y2= "4212" />
    <polygon class="fil1" points="509,3651 1031,4183 971,4242 448,3710 "/>
    <path class="fil4" d="M491 4039c175,-62 286,-178 345,-339"/>
    <path class="fil1" d="M477 3999c81,-29 147,-70 200,-122 52,-53 92,-117 119,-192l80 30c-32,86 -78,160 -139,221 -62,62 -138,110 -232,142l-28 -79z"/>
    <path class="fil4" d="M460 3875c108,-38 177,-110 213,-210"/>
    <path class="fil1" d="M446 3835c48,-17 86,-41 117,-72 31,-30 54,-68 71,-112l79 29c-20,55 -50,104 -90,143 -40,40 -89,71 -149,92l-28 -80z"/>
    <path class="fil4" d="M732 4195c11,-78 16,-174 32,-226 52,-12 152,-17 222,-23"/>
    <path class="fil1" d="M690 4189l0 -1c4,-23 7,-51 10,-79 6,-58 11,-114 24,-153l7 -22 23 -6 0 0c45,-11 118,-16 182,-20 15,-2 30,-3 46,-4l7 85c-12,1 -29,2 -47,3 -49,4 -105,8 -143,14 -7,30 -11,70 -15,112 -3,27 -6,54 -10,83l0 1 0 0 -51 -8 -33 -5 0 0z"/>
    <line class="fil4" x1="279" y1="4399" x2="1001" y2= "4213" />
    <polygon class="fil1" points="268,4358 990,4171 1012,4254 290,4440 "/>
    <path class="fil4" d="M596 4567c34,-182 -12,-336 -121,-468"/>
    <path class="fil1" d="M554 4559c16,-84 13,-162 -6,-234 -19,-72 -55,-138 -106,-199l65 -54c59,70 100,147 123,231 22,84 25,174 7,272l-83 -16z"/>
    <path class="fil4" d="M438 4512c21,-112 -7,-208 -75,-289"/>
    <path class="fil1" d="M397 4505c9,-50 8,-96 -4,-138 -11,-42 -32,-81 -62,-117l65 -54c38,45 65,95 79,149 15,54 17,113 5,175l-83 -15z"/>
    <path class="fil4" d="M852 4437c-63,-49 -143,-101 -180,-141 15,-51 61,-141 91,-204"/>
    <path class="fil1" d="M825 4469l0 0c-18,-14 -42,-31 -64,-47 -47,-34 -93,-67 -120,-98l-16 -17 6 -23 0 0c13,-44 45,-110 73,-167 7,-14 13,-28 21,-43l76 37c-5,11 -13,26 -20,42 -22,45 -46,95 -60,131 23,21 56,45 89,69 22,16 45,32 68,50l1 1 0 0 -33 40 -20 26 -1 -1z"/>
    <line class="fil4" x1="802" y1="4931" x2="1001" y2= "4212" />
    <polygon class="fil1" points="761,4920 960,4201 1042,4224 843,4942 "/>
    <path class="fil4" d="M1105 4741c-140,-121 -297,-159 -465,-130"/>
    <path class="fil1" d="M1078 4773c-65,-56 -134,-93 -206,-112 -71,-19 -147,-21 -225,-8l-15 -83c91,-16 178,-13 262,9 84,23 164,65 239,129l-55 65z"/>
    <path class="fil4" d="M980 4850c-87,-75 -184,-98 -289,-80"/>
    <path class="fil1" d="M952 4882c-38,-33 -79,-55 -121,-66 -42,-11 -86,-13 -133,-5l-14 -83c58,-10 115,-8 169,6 54,15 106,42 154,84l-55 64z"/>
    <path class="fil4" d="M1121 4454c-74,29 -159,73 -212,85 -37,-38 -91,-123 -131,-180"/>
    <path class="fil1" d="M1136 4493l-1 0c-21,9 -47,21 -73,32 -53,24 -104,47 -144,55l-23 6 -17 -18 0 0c-31,-33 -72,-94 -108,-147 -9,-12 -17,-25 -27,-38l70 -48c7,10 17,24 27,39 27,41 58,86 83,117 29,-10 67,-26 104,-43 25,-11 50,-23 77,-33l1 -1 1 0 18 48 12 31 0 0z"/>
    <line class="fil4" x1="1524" y1="4744" x2="1001" y2= "4212" />
    <polygon class="fil1" points="1493,4774 971,4242 1031,4183 1554,4714 "/>
    <path class="fil4" d="M1511 4386c-175,61 -286,178 -345,339"/>
    <path class="fil1" d="M1525 4426c-81,29 -147,70 -200,122 -52,53 -92,117 -119,191l-80 -29c32,-86 78,-160 139,-222 62,-61 138,-109 232,-142l28 80z"/>
    <path class="fil4" d="M1542 4550c-108,38 -177,110 -213,209"/>
    <path class="fil1" d="M1556 4589c-48,17 -87,42 -117,72 -31,31 -54,69 -71,113l-79 -29c20,-56 50,-104 90,-144 40,-39 89,-70 149,-91l28 79z"/>
    <path class="fil4" d="M1270 4229c-11,79 -16,175 -32,226 -52,13 -152,18 -222,23"/>
    <path class="fil1" d="M1311 4236l0 0c-3,24 -6,52 -9,80 -6,57 -11,114 -24,152l-7 23 -23 6 0 0c-45,10 -118,16 -182,20 -15,1 -30,2 -46,4l-7 -85c12,-1 29,-2 47,-3 49,-4 105,-8 143,-14 7,-30 11,-71 15,-112 3,-27 6,-54 10,-83l0 -1 0 0 50 8 34 4 -1 1z"/>
    <line class="fil4" x1="1723" y1="4026" x2="1001" y2= "4212" />
    <polygon class="fil1" points="1734,4067 1012,4253 990,4171 1712,3985 "/>
    <path class="fil4" d="M1406 3858c-34,181 12,336 121,468"/>
    <path class="fil1" d="M1448 3866c-16,84 -13,162 6,234 19,71 55,138 106,199l-65 54c-59,-70 -101,-147 -123,-232 -22,-83 -25,-174 -7,-271l83 16z"/>
    <path class="fil4" d="M1564 3912c-21,113 7,209 74,290"/>
    <path class="fil1" d="M1605 3920c-9,50 -8,96 4,138 11,42 32,81 62,117l-65 54c-38,-45 -65,-95 -79,-149 -15,-55 -17,-113 -5,-175l83 15z"/>
    <path class="fil4" d="M1150 3988c63,49 143,101 180,141 -15,51 -61,140 -91,203"/>
    <path class="fil1" d="M1177 3955l0 0c18,15 42,32 64,48 47,34 93,67 120,97l16 18 -6 23 -1 0c-12,44 -44,110 -72,167 -7,14 -14,27 -21,42l-76 -36c5,-11 13,-27 20,-43 22,-44 46,-94 60,-131 -23,-20 -56,-44 -89,-68 -22,-16 -45,-32 -68,-50l-1 -1 0 0 33 -40 20 -26 1 0z"/>
   </g>
   <g>
    <line class="fil4" x1="3261" y1="2977" x2="2831" y2= "3418" />
    <polygon class="fil1" points="3286,3002 2856,3443 2806,3394 3236,2953 "/>
    <path class="fil4" d="M2966 2994c54,143 152,233 286,279"/>
    <path class="fil1" d="M2999 2982c25,66 60,120 104,163 44,42 98,74 160,95l-23 66c-71,-24 -134,-61 -185,-111 -52,-50 -93,-112 -122,-188l66 -25z"/>
    <path class="fil4" d="M3100 2965c34,89 94,144 177,173"/>
    <path class="fil1" d="M3133 2953c15,39 35,71 61,96 26,25 58,43 95,56l-23 66c-46,-16 -86,-39 -120,-72 -33,-32 -60,-72 -78,-121l65 -25z"/>
    <path class="fil4" d="M2841 3196c65,8 144,10 187,22 11,43 17,126 23,183"/>
    <path class="fil1" d="M2846 3161l0 0c19,3 42,5 65,6 48,4 95,8 127,18l19 5 5 19 0 0c9,37 15,97 20,150 1,13 2,25 4,39l-70 7c-1,-11 -2,-25 -4,-39 -4,-41 -8,-87 -14,-119 -25,-4 -58,-7 -92,-10 -23,-2 -45,-3 -69,-6l-1 0 0 0 6 -42 3 -28 1 0z"/>
    <line class="fil4" x1="2664" y1="2825" x2="2831" y2= "3418" />
    <polygon class="fil1" points="2698,2816 2865,3409 2797,3428 2631,2835 "/>
    <path class="fil4" d="M2531 3090c151,25 278,-16 385,-108"/>
    <path class="fil1" d="M2537 3055c70,12 134,8 193,-9 59,-17 113,-48 163,-91l46 53c-57,50 -120,85 -189,105 -69,20 -144,24 -224,11l11 -69z"/>
    <path class="fil4" d="M2574 2959c93,15 171,-10 238,-67"/>
    <path class="fil1" d="M2579 2924c42,7 79,5 114,-5 34,-10 66,-28 96,-54l46 53c-37,32 -78,55 -123,68 -44,13 -92,16 -144,7l11 -69z"/>
    <path class="fil4" d="M2643 3299c40,-53 81,-120 113,-151 43,11 118,48 170,72"/>
    <path class="fil1" d="M2616 3277l0 0c12,-15 25,-35 38,-54 27,-39 54,-77 78,-100l15 -14 19 5 0 0c36,10 91,35 139,58 12,5 23,10 35,16l-28 63c-10,-4 -23,-10 -36,-16 -37,-17 -78,-36 -109,-47 -17,19 -36,47 -55,75 -13,19 -26,37 -40,57l-1 0 0 1 -33 -27 -22 -16 0 -1z"/>
    <line class="fil4" x1="2234" y1="3266" x2="2831" y2= "3418" />
    <polygon class="fil1" points="2243,3232 2840,3384 2823,3452 2226,3300 "/>
    <path class="fil4" d="M2397 3514c97,-118 125,-248 98,-387"/>
    <path class="fil1" d="M2370 3491c45,-54 74,-112 89,-171 14,-60 15,-122 2,-187l69 -13c14,74 14,147 -4,216 -17,70 -50,137 -102,200l-54 -45z"/>
    <path class="fil4" d="M2305 3412c59,-73 77,-154 61,-240"/>
    <path class="fil1" d="M2278 3389c26,-32 43,-66 52,-101 8,-34 9,-71 1,-109l69 -14c9,48 9,95 -2,140 -11,45 -33,88 -66,129l-54 -45z"/>
    <path class="fil4" d="M2634 3521c-26,-60 -64,-130 -74,-173 31,-31 100,-78 147,-111"/>
    <path class="fil1" d="M2602 3534l0 0c-8,-18 -18,-39 -28,-60 -20,-43 -40,-85 -48,-118l-5 -19 14 -14 0 0c27,-27 76,-62 120,-92 10,-8 20,-15 31,-23l41 57c-8,6 -20,14 -32,23 -33,23 -70,50 -95,71 8,24 23,54 37,85 10,20 20,41 29,63l0 1 1 0 -40 16 -25 11 0 -1z"/>
    <line class="fil4" x1="2401" y1="3859" x2="2831" y2= "3418" />
    <polygon class="fil1" points="2376,3835 2806,3394 2856,3443 2426,3884 "/>
    <path class="fil4" d="M2697 3842c-54,-143 -152,-233 -286,-279"/>
    <path class="fil1" d="M2664 3854c-25,-66 -60,-120 -104,-162 -45,-43 -98,-74 -161,-96l23 -66c72,25 134,62 186,111 52,50 93,112 121,189l-65 24z"/>
    <path class="fil4" d="M2562 3871c-33,-88 -94,-144 -177,-173"/>
    <path class="fil1" d="M2530 3883c-15,-39 -36,-71 -62,-96 -26,-24 -57,-43 -94,-56l23 -66c46,16 86,40 120,72 33,32 59,73 78,122l-65 24z"/>
    <path class="fil4" d="M2822 3640c-65,-7 -144,-9 -187,-22 -12,-42 -17,-125 -23,-183"/>
    <path class="fil1" d="M2817 3675l0 0c-19,-2 -43,-4 -66,-6 -48,-4 -94,-8 -126,-17l-19 -6 -5 -19 0 0c-10,-37 -15,-97 -20,-150 -2,-12 -3,-24 -4,-38l70 -7c1,10 2,24 3,39 4,41 8,86 14,118 25,5 59,7 93,10 22,2 45,4 69,7l1 0 0 0 -6 42 -3 27 -1 0z"/>
    <line class="fil4" x1="2998" y1="4011" x2="2831" y2= "3418" />
    <polygon class="fil1" points="2964,4021 2798,3428 2865,3409 3032,4002 "/>
    <path class="fil4" d="M3131 3747c-150,-25 -277,15 -384,108"/>
    <path class="fil1" d="M3125 3781c-70,-11 -134,-8 -193,9 -59,17 -113,48 -162,91l-46 -53c57,-49 120,-85 189,-105 69,-20 143,-24 224,-11l-12 69z"/>
    <path class="fil4" d="M3089 3878c-93,-16 -172,9 -238,67"/>
    <path class="fil1" d="M3083 3912c-41,-7 -79,-5 -114,5 -34,10 -66,29 -95,54l-46 -53c37,-32 77,-55 122,-68 45,-13 93,-15 145,-7l-12 69z"/>
    <path class="fil4" d="M3019 3537c-39,53 -81,121 -113,151 -42,-11 -117,-48 -170,-71"/>
    <path class="fil1" d="M3047 3559l0 0c-12,16 -25,35 -39,54 -27,39 -53,78 -78,101l-14 13 -19 -5 0 0c-37,-10 -92,-35 -140,-57 -11,-5 -22,-11 -35,-16l29 -64c9,4 22,10 35,16 37,17 79,36 110,47 16,-19 35,-47 55,-75 13,-18 25,-37 40,-56l0 -1 0 0 34 26 22 16 0 1z"/>
    <line class="fil4" x1="3428" y1="3570" x2="2831" y2= "3418" />
    <polygon class="fil1" points="3420,3604 2823,3452 2840,3384 3437,3536 "/>
    <path class="fil4" d="M3266 3323c-97,118 -126,248 -99,387"/>
    <path class="fil1" d="M3293 3345c-45,55 -74,112 -89,172 -15,59 -15,121 -3,186l-68 13c-15,-74 -14,-146 3,-216 17,-70 51,-136 103,-199l54 44z"/>
    <path class="fil4" d="M3358 3425c-60,73 -78,153 -61,239"/>
    <path class="fil1" d="M3385 3447c-27,32 -44,66 -52,101 -9,35 -9,72 -2,110l-68 13c-10,-48 -9,-95 2,-140 11,-45 33,-88 66,-128l54 44z"/>
    <path class="fil4" d="M3028 3315c26,60 64,130 75,174 -31,30 -100,77 -147,111"/>
    <path class="fil1" d="M3061 3302l0 0c8,18 18,39 27,60 21,44 41,86 49,118l4 19 -14 14 0 0c-27,27 -76,62 -119,93 -11,7 -20,14 -32,22l-41 -57c9,-6 20,-14 32,-22 34,-24 71,-50 96,-71 -9,-24 -23,-55 -38,-86 -9,-20 -19,-41 -29,-63l0 -1 0 0 39 -16 26 -10 0 0z"/>
   </g>
   <path class="fil3" d="M13092 9863c0,-120 -39,-225 -117,-314 -79,-89 -183,-134 -313,-134 -129,0 -237,47 -323,140 -87,94 -130,207 -130,340l-55 0c0,-151 49,-277 146,-378 98,-101 219,-152 365,-152 146,0 263,50 352,149 90,98 134,215 134,351 0,196 -105,361 -316,493l-485 303 796 0 0 59 -981 0 622 -395c204,-128 305,-282 305,-462zm921 880l-27 0c-184,0 -343,-69 -477,-207 -134,-138 -201,-300 -201,-486 0,-186 68,-348 204,-484 135,-136 298,-204 489,-204 190,0 353,68 489,203 135,136 203,299 203,489 0,120 -30,233 -91,339 -61,106 -144,191 -249,255 -105,63 -218,95 -340,95zm621 -690c0,-175 -62,-326 -186,-451 -125,-126 -274,-188 -448,-188 -174,0 -323,62 -447,188 -124,125 -186,276 -186,451 0,176 62,326 186,451 124,125 273,187 447,187 174,0 323,-62 448,-187 124,-125 186,-275 186,-451z"/>
  </g>
 </g>
</svg>
