<svg xmlns="http://www.w3.org/2000/svg" xmlns:xlink="http://www.w3.org/1999/xlink" viewBox="0 0 298.08 224.03"><defs><style>.cls-1{fill:none;}.cls-2{clip-path:url(#clip-path);}.cls-3,.cls-5{fill:#404041;}.cls-4,.cls-7{fill:#ed1c24;}.cls-5,.cls-7{fill-rule:evenodd;}.cls-6{fill:#231f20;}</style><clipPath id="clip-path" transform="translate(0)"><rect class="cls-1" width="298.08" height="224.03"/></clipPath></defs><title>Asset 2</title><g id="Layer_2" data-name="Layer 2"><g id="Layer_1-2" data-name="Layer 1"><g class="cls-2"><path class="cls-3" d="M97.92,64.4c1,5,1.81,8.28,3.91,9.24s15,2.22,20.18-.36c4.35-2.2-1.1-13.18.76-13.78,7.53-.46,13.55,2.66,25,8,10.65,5,24.81,3.51,37.52,2.69,8.34-.24,18-2.2,14.12-.64A71.35,71.35,0,0,1,179.33,74c-5.12.39-3.65.46-9,.65C154.2,75.2,150.6,74.1,142,69h0l-.12-.07h0c-5.6-2.5-14.54-9-19.14-9.43-5.13.31-16.21.12-18.89-1.17s-4.63-2.5-6.27-5.06c-2.31-3.61-.72,2.32.34,11.13" transform="translate(0)"/><path class="cls-4" d="M199.1,67.51c6-.94,5.76-10.25.17-14.36-6.9-4.61-20.53-9.64-25.58-8.89-1-.31-1.56-5.78,13.65.39,9.91,3.69,12.41,4.1,17.68,7.76a8.75,8.75,0,0,1,2,9.3c-1,3.06-4.78,5.33-8,5.88-.08,0-.16-.08.08-.08" transform="translate(0)"/><path class="cls-4" d="M102.77,23h0c-.32.65-.71,1.52-2.22,5.21C97.44,36,91.77,49.8,103.76,55.25c4.21,1.87,12.37,2.59,16.63,1.22,1-.32.33-.18,0-.15-5,0-10.92-4.16-13.15-5.7C97.62,42.5,99,36.43,101.76,28.43a47.56,47.56,0,0,0,1-5.46Z" transform="translate(0)"/><path class="cls-4" d="M120.63,56.4s0,0,0,0h0v0Zm0,0h0v-.07c0-.07,0,0,0,.06M102.11,25.24c-.31.74-.72,1.71-1.27,3.06h0l-.14.37h0c-3.09,7.81-8.34,21.06,3.2,26.29h0a30.12,30.12,0,0,0,15,1.56c-4.61-.64-9.53-4-11.67-5.53l-.17-.12h0c-4.87-4.11-7-7.72-7.49-11.32s.53-7.15,1.92-11.19h0a18.34,18.34,0,0,0,.65-3.1m1-2.21h0c-.13.57-.2,1.17-.29,1.82a19.41,19.41,0,0,1-.72,3.66h0c-1.37,4-2.4,7.44-1.9,10.91s2.53,6.93,7.27,10.93l.16.11c2.32,1.61,8,5.54,12.78,5.52l.21,0c.29,0,.56-.07.65.2s-.12.39-.75.59a23.47,23.47,0,0,1-8.27.63,27.44,27.44,0,0,1-8.58-1.87h0c-12.08-5.48-6.69-19.08-3.51-27.09h0l.15-.37h0c.78-1.89,1.25-3,1.56-3.76s.51-1.14.67-1.47l.21.1Z" transform="translate(0)"/><path class="cls-4" d="M166.12,39.38a7.5,7.5,0,0,0,4.15.08A4.11,4.11,0,0,0,173,37.77a.84.84,0,0,0,.1-.65.61.61,0,0,0-.35-.44c-.5-.24-1.42-.11-2.75.39a14.55,14.55,0,0,0-3.9,2.31m-.58.46c-.54.48-.79.74-1,1a2.92,2.92,0,0,0-.49.59.47.47,0,0,0,0,.51,1.64,1.64,0,0,0,.65.45,6.59,6.59,0,0,0,2.83.53,32.4,32.4,0,0,0,7.43-.9c2.62-.64,6.34,1.14,6.75,1.33l.13.09a6.81,6.81,0,0,1-.74,1.41c-1.09-.23-3.86-1.68-5.86-1.11a21,21,0,0,1-8.11.61,8,8,0,0,1-3.37-1.18A3.81,3.81,0,0,1,162.12,41a2.92,2.92,0,0,1,.28-2.49,4.48,4.48,0,0,1,1.84-1.76,10,10,0,0,1,3.21-1,13.67,13.67,0,0,1,3.15-.17,7.36,7.36,0,0,1,2.49.58,2.12,2.12,0,0,1,1.18,1.13,1.74,1.74,0,0,1-.16,1.52c-.47.86-1.49,1.38-3.06,1.58a14.1,14.1,0,0,1-5.51-.49m-1.53-7a1.73,1.73,0,0,0-.23-.29,1.17,1.17,0,0,0-.3-.19,2.51,2.51,0,0,0-1.78,0,13.49,13.49,0,0,0-2.82,1.24A21.71,21.71,0,0,0,156,35.5c-.83.64-1.26.85-1.31,1.18-.09.56.2.71.6.9,1.05.49,3.46.18,7.5-1,1.29-.39,3.28-.59,4.7-.85a3.35,3.35,0,0,1,1.66-.06l.2.15.09.06A21.28,21.28,0,0,0,164.27,37l-.93.29-.78.24q-5.9,1.8-8.11.78a3.17,3.17,0,0,1-1.8-1.8,2.85,2.85,0,0,1,.28-2.43,4.85,4.85,0,0,1,1.78-1.85,8.8,8.8,0,0,1,3-1.06,12.3,12.3,0,0,1,3.12-.19,7.11,7.11,0,0,1,2.51.56,2.74,2.74,0,0,1,1.39,1.17,1.53,1.53,0,0,1-.11,1.47,1.62,1.62,0,0,1-.94.78,1.59,1.59,0,0,1-1.21-.06,1.31,1.31,0,0,1-.69-.66.89.89,0,0,1,0-.84,1.34,1.34,0,0,1,.87-.62,2.39,2.39,0,0,1,1.34.08m-15.62-4.59A15.53,15.53,0,0,1,139.93,23C134.66,16.68,134.82.26,135.12.32s2.8,14.39,7,21c1.45,2.29,6.64,5.79,9.67,5.16l3.3,1.28-5.87,3.67c-.89.55-1.6,1-2.08,1.35-.21.17-.39.49-.2.64s.64.15,1.62,0a35.92,35.92,0,0,0,3.73-1,38.85,38.85,0,0,1,5.41-1.14,3.58,3.58,0,0,1,1.86-.07,1.64,1.64,0,0,1,.21.14l.11.07a23.29,23.29,0,0,0-5.49,1.3l-2,.64a26.58,26.58,0,0,1-4.55,1.08,4.73,4.73,0,0,1-2.47-.3,2,2,0,0,1-1.11-1.1,1.86,1.86,0,0,1,.23-1.52q.59-1.09,4.2-3.23c.4-.24-.43.19-.23.06" transform="translate(0)"/><path class="cls-4" d="M166.8,39.24a7.21,7.21,0,0,0,1.38.16,7.9,7.9,0,0,0,2-.24,6.51,6.51,0,0,0,1.66-.66,2.42,2.42,0,0,0,.89-.88.65.65,0,0,0,.08-.22h0a.69.69,0,0,0,0-.2h0a.48.48,0,0,0-.07-.16.31.31,0,0,0-.11-.08,1.62,1.62,0,0,0-.89-.05,7.79,7.79,0,0,0-1.62.45,13.16,13.16,0,0,0-1.93.94,16.32,16.32,0,0,0-1.4.94m-2.27-5.83v0l-.63-.2a2.71,2.71,0,0,0-.61-.11h0a1.66,1.66,0,0,0-.55,0,1.3,1.3,0,0,0-.43.18.8.8,0,0,0-.24.28.54.54,0,0,0-.09.28.56.56,0,0,0,0,.28h0a.9.9,0,0,0,.2.28,1.25,1.25,0,0,0,.34.22,1.23,1.23,0,0,0,.48.13,1.47,1.47,0,0,0,.5-.07,1.41,1.41,0,0,0,.45-.25h0a1.24,1.24,0,0,0,.32-.39h0a1.57,1.57,0,0,0,.2-.64m5.64,2.4.67.3-1.37,0a10.87,10.87,0,0,0-2.05.31c-.86.19-1.88.48-3.06.85h0l-.85.27-.14.12h0a3.72,3.72,0,0,0-.69.9,3.39,3.39,0,0,0-.4,1.14,2.27,2.27,0,0,0,.13,1.09l0,.1a3.39,3.39,0,0,0,1.45,2,7.53,7.53,0,0,0,1.42.71,8.69,8.69,0,0,0,1.82.43,20.86,20.86,0,0,0,4,.09,20,20,0,0,0,3.95-.69c1.56-.45,3.51.25,4.88.74l.93.32.31-.56a1.59,1.59,0,0,1,.25-.33c-.6-.27-4.07-1.88-6.5-1.28a33,33,0,0,1-3.74.67,36,36,0,0,1-3.75.23,7.36,7.36,0,0,1-1.6-.13,5.86,5.86,0,0,1-1.38-.43,3.45,3.45,0,0,1-.44-.25h0a1.56,1.56,0,0,1-.32-.3h0a.81.81,0,0,1-.14-.42.87.87,0,0,1,.12-.42A2.13,2.13,0,0,1,164,41h0c.09-.11.2-.22.33-.36l.13-.13h0c.21-.21.46-.46.92-.86l.13-.11h0l.44-.36a16,16,0,0,1,2-1.38,14,14,0,0,1,2-1,8.47,8.47,0,0,1,1.75-.49,2.33,2.33,0,0,1,1.25.1,1.09,1.09,0,0,1,.33.27.88.88,0,0,1,.18.39,1.11,1.11,0,0,1,0,.44,1.69,1.69,0,0,1-.15.43A3.1,3.1,0,0,1,172.19,39a6.72,6.72,0,0,1-1.84.73,7.87,7.87,0,0,1-2.18.26H168l.31,0A12.4,12.4,0,0,0,171,40a5.31,5.31,0,0,0,1.83-.51,2.23,2.23,0,0,0,1-.91,1.78,1.78,0,0,0,.23-.67,1.18,1.18,0,0,0-.08-.59h0a1.37,1.37,0,0,0-.35-.52h0a2.43,2.43,0,0,0-.67-.44A5.27,5.27,0,0,0,171.9,36a8.33,8.33,0,0,0-1.32-.2l-.41,0m-7.84-3.22a2.94,2.94,0,0,0-.54.12h0a8.18,8.18,0,0,0-1.22.45c-.46.2-1,.46-1.53.77h0c-.52.28-1,.58-1.49.88s-.92.62-1.33.93c-.23.19-.42.32-.58.44-.39.28-.59.43-.61.55a.38.38,0,0,0,0,.34h0a.94.94,0,0,0,.37.22,4.81,4.81,0,0,0,2.46.1,31.66,31.66,0,0,0,4.82-1.15,26.5,26.5,0,0,1,3.18-.61l.82-.12.68-.13q.85-.14,1.65-.18a11.7,11.7,0,0,1,1.57,0,9.87,9.87,0,0,1,1.42.21,6.28,6.28,0,0,1,1.18.39,3,3,0,0,1,.83.56h0a2,2,0,0,1,.5.74h0a1.9,1.9,0,0,1,.12.88,2.28,2.28,0,0,1-.3.9,2.9,2.9,0,0,1-1.24,1.18,6.15,6.15,0,0,1-2,.57,14.25,14.25,0,0,1-2.79,0,15.84,15.84,0,0,1-2.68-.49c-.36.32-.57.53-.75.72h0l-.13.13h0a3.58,3.58,0,0,0-.28.3h0a2,2,0,0,0-.16.22h0a.3.3,0,0,0,0,.12.14.14,0,0,0,0,.06.78.78,0,0,0,.16.15h0a3,3,0,0,0,.36.19,4.66,4.66,0,0,0,1.23.39,6.84,6.84,0,0,0,1.47.12,35.14,35.14,0,0,0,3.69-.23,31.26,31.26,0,0,0,3.66-.66c2.67-.65,6.35,1.06,6.92,1.33h0l0,0,.09,0h0l.1.07,0,0,0,0h0l0,0v0a1.81,1.81,0,0,1-.3.9c-.17.31-.36.66-.44.77a.34.34,0,0,1-.18.14l-.08,0H181c-.31-.07-.72-.22-1.21-.39-1.29-.47-3.12-1.12-4.51-.73a20.29,20.29,0,0,1-4.06.71,20.65,20.65,0,0,1-4.17-.09,7.92,7.92,0,0,1-3.49-1.23,3.91,3.91,0,0,1-1.7-2.25l0-.11a2.77,2.77,0,0,1-.17-1.39,3.87,3.87,0,0,1,.47-1.36c.07-.13.15-.25.23-.37a26.56,26.56,0,0,1-4.74,1,6.53,6.53,0,0,1-3.3-.35,4.35,4.35,0,0,1-1.23-.83,3.12,3.12,0,0,1-.74-1.14,2.83,2.83,0,0,1-.15-1.32,3.74,3.74,0,0,1,.45-1.37,4.72,4.72,0,0,1,.33-.53m7.43-2.13.77.37h-1.34a10.85,10.85,0,0,0-2.05.33c-.91.22-2,.54-3.34,1h0l-.31.09-.23.23a4.77,4.77,0,0,0-.71,1h0a3.24,3.24,0,0,0-.38,1.15,2.25,2.25,0,0,0,.12,1h0a2.31,2.31,0,0,0,.59.9,3.39,3.39,0,0,0,1.06.71,5.91,5.91,0,0,0,3,.3,26.42,26.42,0,0,0,4.91-1.08l.73-.23a4.69,4.69,0,0,1,.56-.4,8.34,8.34,0,0,0-.86.21h0A33.62,33.62,0,0,1,158,38a5.28,5.28,0,0,1-2.8-.15,1.56,1.56,0,0,1-.59-.39h0a1,1,0,0,1-.19-.84c.06-.37.34-.58.87-1l.56-.42c.43-.33.89-.65,1.37-1s1-.62,1.53-.91h0c.57-.32,1.1-.58,1.58-.79a9.91,9.91,0,0,1,1.31-.49h0a4.08,4.08,0,0,1,1.08-.17h0a2.13,2.13,0,0,1,.9.18h0l.19.11.18.14h0a.8.8,0,0,1,.15.17,1.33,1.33,0,0,1,.14.19l.23.39a.75.75,0,0,0-.08-.24h0a1.62,1.62,0,0,0-.43-.53,3.77,3.77,0,0,0-.81-.5,5.73,5.73,0,0,0-1.06-.35,9.89,9.89,0,0,0-1.34-.18l-.38,0m-17.6-6a15.14,15.14,0,0,0,5.6,2.66v0h0c.22-.1.43-.22.58,0a.47.47,0,0,1,.06.15l.14,0-.16.1a.64.64,0,0,1-.25.24h0A28.53,28.53,0,0,0,146,30.34a5.07,5.07,0,0,0-1.27,1.26,2.2,2.2,0,0,0-.25.7,1.25,1.25,0,0,0,.05.58h0a1.22,1.22,0,0,0,.32.5,2.09,2.09,0,0,0,.62.41,3.32,3.32,0,0,0,1,.28h0a7,7,0,0,0,1.3,0h0a14.63,14.63,0,0,0,1.84-.34c.76-.18,1.64-.42,2.65-.73l1.35-.42.26-.08a4.06,4.06,0,0,1,.46-.36c-.58.13-1.24.3-2,.52s-1.49.44-2.1.61-1.16.29-1.66.38a7.85,7.85,0,0,1-1.14.17,1.09,1.09,0,0,1-.74-.19h0a.3.3,0,0,1-.08-.08h0a.52.52,0,0,1-.09-.49.93.93,0,0,1,.19-.37,1.14,1.14,0,0,1,.19-.19h0a19.26,19.26,0,0,1,1.62-1.06l.48-.31,5.34-3.33-2.63-1a8.48,8.48,0,0,1-5-1.24,14.17,14.17,0,0,1-4.89-4.08h0c-3.07-4.85-5.19-13.81-6.26-18.32-.11-.46-.19-.86-.25-1.2,0,.64,0,1.43.05,2.35.21,5.22,1.25,14.24,4.81,18.49a15.83,15.83,0,0,0,2.64,2.55M153,33.42l-.57.18h0c-1,.31-1.93.56-2.69.74a14.83,14.83,0,0,1-1.92.35h0a6.82,6.82,0,0,1-1.43,0,4.22,4.22,0,0,1-1.2-.33,2.67,2.67,0,0,1-.8-.54,1.87,1.87,0,0,1-.47-.74h0a1.83,1.83,0,0,1-.07-.87,2.61,2.61,0,0,1,.31-.9,5.32,5.32,0,0,1,1.44-1.46,23.74,23.74,0,0,1,2.11-1.42,15.68,15.68,0,0,1-5.25-2.61,16,16,0,0,1-2.75-2.65C136,18.78,135,9.6,134.73,4.31c0-1.18,0-2.17,0-2.87s.12-1.32.26-1.39l0,0h.17c.3.06.56,1.19,1,3,1.06,4.48,3.16,13.37,6.17,18.12h0A13.51,13.51,0,0,0,147,25a7.67,7.67,0,0,0,4.69,1.16l.09,0,.08,0,3.3,1.28.58.22-.53.34-5.87,3.66h0l-.49.31a16.75,16.75,0,0,0-1.55,1h0l-.1.09-.06.1a.73.73,0,0,0,.28,0,7.94,7.94,0,0,0,1-.15c.48-.09,1-.21,1.62-.38s1.29-.36,2.08-.6a32.33,32.33,0,0,1,4.61-1l.27,0c.55-.1,1.68-.3,2.22-.33h0a11.89,11.89,0,0,1,1.58,0,8.8,8.8,0,0,1,1.43.2,5.11,5.11,0,0,1,1.18.39,4.28,4.28,0,0,1,1,.58,2.35,2.35,0,0,1,.59.73h0a1.75,1.75,0,0,1,.17.86,2.24,2.24,0,0,1-.28.89h0a2.06,2.06,0,0,1-.47.58,2,2,0,0,1-.65.36,2.08,2.08,0,0,1-.73.1,1.82,1.82,0,0,1-.71-.18,1.89,1.89,0,0,1-.51-.34,1.45,1.45,0,0,1-.34-.48h0a1.23,1.23,0,0,1-.1-.56h0a1.24,1.24,0,0,1,.16-.55,1.44,1.44,0,0,1,.43-.49,2.15,2.15,0,0,1,.37-.19" transform="translate(0)"/><path class="cls-3" d="M103.65,81.4c-1.54,1.14-5.85,2-6.65,2.47s1.18-1.33,1.52-1.47c1.39-.6,5.44-2,6.8-3.15.57-.5.87-.82,1.69-1.58a6.53,6.53,0,0,1,1.78-1.41c.06,0,.1,0,.11,0a.28.28,0,0,1,0,.1c0,.08-.11.24-.34.48a16.25,16.25,0,0,0-3.2,5.74c-.12.32-.28.79-.49,1.39a52.86,52.86,0,0,1-4.17,9.06c-.9,1.62-1.83,3.23-3.4,4.08-2.46,1.34-7.34,1.15-9,1.15A18,18,0,0,1,83,97.47a14.7,14.7,0,0,1-3.11-1.77c3.06.15,13.63.67,15.61-1,1-.8,1.06-1.48,2-3,.21-.35.5-.92.9-1.67a66,66,0,0,1,5.26-8.61M107,86.76a3.09,3.09,0,0,1,1.3,1.35c.65,1.23-1.42,4-1.85,5.42a6.09,6.09,0,0,0-.34,1.93.73.73,0,0,0,.1.41.26.26,0,0,0,.23.16c1.54,0,5-3.6,9-4.28,1.9-.33.73.19,1.56,0s-4.06,1.1-4.77,1.54c-3.58,2.18-4.34,5.09-6.89,4.69a1.76,1.76,0,0,1-1.38-.69,3,3,0,0,1-.64-1.93,8.89,8.89,0,0,1,1.18-3.64c.78-1.55,2.33-3.15,2.33-3.69a1.16,1.16,0,0,0-.12-.59,1,1,0,0,0-.43-.35,3.18,3.18,0,0,1-.51.13,2.74,2.74,0,0,1-.48,0,.83.83,0,0,1-.52-.13.39.39,0,0,1-.19-.35.48.48,0,0,1,.22-.38,1,1,0,0,1,.58-.15,4.13,4.13,0,0,1,.58.08,3.43,3.43,0,0,0,.69.09c1,0,2-1.09,3.14-3.28a19.37,19.37,0,0,1,1.78-3,13.8,13.8,0,0,1,3.54-3.29,7.3,7.3,0,0,1,2.94-1.4.25.25,0,0,1,.17.06.18.18,0,0,1,.06.13c0,.08-.12.17-.38.27a5.48,5.48,0,0,0-.58.24A9,9,0,0,0,114,79.74l-.2.37a20.76,20.76,0,0,1-3.33,4.7,7.5,7.5,0,0,1-3.39,2" transform="translate(0)"/><path class="cls-3" d="M98.78,83a18.68,18.68,0,0,0,4.69-1.8l1.74-1.29-1.31,1.73a43.24,43.24,0,0,0-2.45,3.65c-.88,1.43-1.8,3.07-2.78,4.91h0l-.39.73c-.21.4-.38.72-.52,1-.31.5-.52.9-.71,1.24a5.42,5.42,0,0,1-1.36,1.86c-1,.89-4.26,1.19-7.6,1.26-2.62,0-5.33,0-7.09-.13a10.09,10.09,0,0,0,2.11,1.11,12.47,12.47,0,0,0,2.34.55A19.56,19.56,0,0,0,88.3,98h.56c2,0,6.15.06,8.3-1.11A5.89,5.89,0,0,0,99,95.19a19.28,19.28,0,0,0,1.43-2.29l.1-.18a52.24,52.24,0,0,0,4-8.83l.5-1.39a22.35,22.35,0,0,1,1.49-3.38,12.6,12.6,0,0,1,1-1.53l-.34.31c-.33.3-.57.54-.79.75s-.56.53-.9.84c-1.08.94-3.72,2-5.54,2.66-.54.21-1,.39-1.35.54a4.08,4.08,0,0,0-.66.5l.8-.24m3.82-.63A32.62,32.62,0,0,1,99,83.55a13.71,13.71,0,0,0-1.8.59.82.82,0,0,1-.31.11h0c-.49,0-.53-.19-.25-.59l.26-.28a10.12,10.12,0,0,1,1.55-1.27l1.38-.54h0c1.77-.69,4.35-1.68,5.34-2.55.34-.29.58-.52.89-.82s.46-.44.8-.76c.51-.48.91-.84,1.21-1.07a1.6,1.6,0,0,1,.78-.42h.13a.35.35,0,0,1,.24.15.44.44,0,0,1,.06.16s0,.07,0,.11h0a.63.63,0,0,1-.15.36,3.06,3.06,0,0,1-.28.34h0a11,11,0,0,0-1.69,2.35,22.13,22.13,0,0,0-1.45,3.28l-.49,1.39A53,53,0,0,1,101.08,93l-.1.18a21.16,21.16,0,0,1-1.47,2.36,6.68,6.68,0,0,1-2.05,1.84c-2.29,1.24-6.55,1.2-8.6,1.18H88.3a21,21,0,0,1-3-.24,13.41,13.41,0,0,1-2.47-.59,11.25,11.25,0,0,1-2.52-1.36L79.71,96l-1-.63,1.16,0c1.53.08,4.94.24,8.19.18s6.28-.33,7.2-1.1a4.88,4.88,0,0,0,1.22-1.68c.2-.36.42-.77.72-1.27q.19-.33.51-.93c.11-.21.24-.46.39-.73q1.47-2.77,2.79-4.94c.59-1,1.15-1.82,1.69-2.6m5.77,3.47a3,3,0,0,1-.26.25,5.52,5.52,0,0,0,.54-.28,7.76,7.76,0,0,0,1.56-1.17,12.8,12.8,0,0,0,1.55-1.87h0A28,28,0,0,0,113.47,80c0-.06.07-.14.13-.24l.07-.13h0a11.72,11.72,0,0,1,1.6-2.22h0a8.85,8.85,0,0,1,.84-.79c-.26.16-.54.33-.84.53a15.3,15.3,0,0,0-1.92,1.49,12.62,12.62,0,0,0-1.55,1.73h0a14,14,0,0,0-.79,1.2c-.3.49-.62,1.07-1,1.73h0a10.71,10.71,0,0,1-1.67,2.53m-2,1.79h0m1.12,0a2.67,2.67,0,0,0-.66-.5l-.67-.35-.33-.06-.34-.06-.18,0a.9.9,0,0,0-.25,0,.35.35,0,0,0-.14.06h0l-.09.08h0s0,0,0,.05a.43.43,0,0,0,0,0h0l0,0h0l.11,0h0a.75.75,0,0,0,.23,0h.21l.22,0,.23,0,.23-.07.13,0,.11.06a2,2,0,0,1,.32.2h0a.83.83,0,0,1,.23.27h0a1.43,1.43,0,0,1,.12.35h0a2.25,2.25,0,0,1,0,.4,4.32,4.32,0,0,1-1,1.71,16.13,16.13,0,0,0-1.39,2.12,14.32,14.32,0,0,0-.87,2,4.8,4.8,0,0,0-.27,1.47,3.33,3.33,0,0,0,.14,1,2.45,2.45,0,0,0,.42.74,1.54,1.54,0,0,0,.48.41h0a2.64,2.64,0,0,0,.7.17h0c1.35.21,2.18-.65,3.32-1.81.38-.4.79-.82,1.27-1.26l-.42.27c-1.28.83-2.31,1.5-3.06,1.49h0a.5.5,0,0,1-.31-.1h0A.69.69,0,0,1,106,96a.76.76,0,0,1-.11-.26,2.54,2.54,0,0,1,0-.29h0a6.74,6.74,0,0,1,.36-2,13.35,13.35,0,0,1,.79-1.71c.67-1.29,1.45-2.79,1.08-3.48a3,3,0,0,0-.51-.72m.2-.66.25.22a4,4,0,0,1,.61.87c.52,1-.34,2.64-1.07,4.06h0a10.22,10.22,0,0,0-.75,1.61,5.83,5.83,0,0,0-.33,1.82h0a.34.34,0,0,0,0,.15.19.19,0,0,0,0,.09v0h0a8.08,8.08,0,0,0,2.69-1.39,17.41,17.41,0,0,1,6.17-2.89c1.41-.24,1.49,0,1.55.2h0c0,.12-.07-.2,0-.21h0l.09,0,.28-.07.09.27c0,.17,0,.28-.23.38v0l-.09,0h0l-.26.08a39.38,39.38,0,0,0-4.37,1.4,16.22,16.22,0,0,0-3.25,2.74c-1.26,1.3-2.19,2.26-3.85,2h0a3.26,3.26,0,0,1-.89-.23h0a2.12,2.12,0,0,1-.67-.57,2.7,2.7,0,0,1-.54-1,4.24,4.24,0,0,1-.18-1.18,5.41,5.41,0,0,1,.31-1.66,15,15,0,0,1,.9-2.12,16.48,16.48,0,0,1,1.44-2.21A5.25,5.25,0,0,0,106.5,88a1.14,1.14,0,0,0,0-.28.53.53,0,0,0,0-.15.31.31,0,0,0-.1-.1h0l-.09-.06-.15,0-.28,0h0l-.27,0h-.26a1.48,1.48,0,0,1-.38,0h0a1,1,0,0,1-.32-.14.78.78,0,0,1-.24-.27h0a.77.77,0,0,1-.08-.34.66.66,0,0,1,.1-.37h0a.88.88,0,0,1,.25-.26h0A1,1,0,0,1,105,86a1.7,1.7,0,0,1,.4,0,1.42,1.42,0,0,1,.27,0L106,86h0l.36.06.27,0a1.88,1.88,0,0,0,1.29-.73A10.48,10.48,0,0,0,109.49,83h0c.35-.69.68-1.28,1-1.77A13.35,13.35,0,0,1,111.3,80a12.64,12.64,0,0,1,1.63-1.81,14,14,0,0,1,2-1.56,17.94,17.94,0,0,1,1.84-1.07h0a3.07,3.07,0,0,1,1.26-.38.69.69,0,0,1,.2,0,.42.42,0,0,1,.18.11h0a.42.42,0,0,1,.11.15h0a.47.47,0,0,1,.06.2h0a.48.48,0,0,1-.23.38,2,2,0,0,1-.36.18h0l-.31.12a1.67,1.67,0,0,0-.23.11,6.82,6.82,0,0,0-1.72,1.37h0a10.48,10.48,0,0,0-1.5,2.09l-.07.13-.12.22v0a29.47,29.47,0,0,1-1.75,2.82h0a14.07,14.07,0,0,1-1.63,2A8.2,8.2,0,0,1,109,86.3a7.11,7.11,0,0,1-1.22.57" transform="translate(0)"/><path class="cls-3" d="M189.17,92.24l.63-1.08L194,91l-2.69,4.77c-.22.39-.4.71-.53,1s-.18.42-.16.47a.39.39,0,0,0,.22.22.81.81,0,0,0,.38.08c.42,0,1.59-1,3.69-2.35.68-.43,4.44-3.09,5.58-3.75,2.73-1.59,2.73-1-2.68,2.48-.89.58-1.6,1.14-2.44,1.69-2.2,1.44-4,2.54-5.46,2.54a5.28,5.28,0,0,1-2-.36,1.78,1.78,0,0,1-1.09-1,1.6,1.6,0,0,1-.12-.66,1.77,1.77,0,0,1,.2-.63,8.13,8.13,0,0,1-2.69,1.92,8,8,0,0,1-6.11.1,2.77,2.77,0,0,1-1.63-1.45,1.86,1.86,0,0,1,.25-1.86A5.92,5.92,0,0,1,179,92.59a18,18,0,0,1,3.29-1.19,12.51,12.51,0,0,1,3.07-.4,7.77,7.77,0,0,1,2.38.31,2.92,2.92,0,0,1,1.44.93m-.7.16a1.26,1.26,0,0,0-.73-.65,3.24,3.24,0,0,0-1.32-.26,3.55,3.55,0,0,0-1.81.6,13.32,13.32,0,0,0-2.29,1.85,12.89,12.89,0,0,0-1.86,2.11,1.48,1.48,0,0,0-.34,1.29.63.63,0,0,0,.33.35,1.87,1.87,0,0,0,.72.11,5.44,5.44,0,0,0,2.14-.51,10.39,10.39,0,0,0,2.34-1.42,12.85,12.85,0,0,0,2.23-2.09c.5-.63.7-1.09.59-1.38m-27.05,2a22.11,22.11,0,0,1,4-2.56,7.81,7.81,0,0,1,3.27-.83,4.66,4.66,0,0,1,2.19.47,2.6,2.6,0,0,1,1.22,1.34,1.5,1.5,0,0,1-.14,1.32,9.5,9.5,0,0,1-1.85,2l-.49.41c-.46.37-.66.63-.61.77a.29.29,0,0,0,.19.14,1,1,0,0,0,.37.06,4.82,4.82,0,0,0,1.66-.5,23.44,23.44,0,0,0,2.63-1.43l.68-.41q5.26-3.28,6.35-3.28l.33,0h.18a27.06,27.06,0,0,0-5.42,3l-.46.3-.18.13q-4.23,2.74-6.47,2.75a4.73,4.73,0,0,1-2.21-.51,2.48,2.48,0,0,1-1.29-1.33,1.34,1.34,0,0,1,.09-1.2A6.2,6.2,0,0,1,167,93.44l1-.77c.69-.53,1-.85,1-.94a.22.22,0,0,0-.15-.15.84.84,0,0,0-.36-.06,8.46,8.46,0,0,0-4.28,1.73A33.29,33.29,0,0,0,158.68,98l-5.74.16,2.45-2.6c.79-.83,1.34-1.47,1.68-1.91s.47-.73.42-.87a.27.27,0,0,0-.14-.17.57.57,0,0,0-.25-.07,3.4,3.4,0,0,0-1.38.63,3.35,3.35,0,0,1-1.37.62l-.15,0s-.08,0-.09,0,0-.15.11-.25a2.78,2.78,0,0,1,.52-.4,19.37,19.37,0,0,1,2.6-1.54,4.57,4.57,0,0,1,1.83-.48,2.71,2.71,0,0,1,1.45.4,2,2,0,0,1,.9,1,2.11,2.11,0,0,1,.14.93,3.11,3.11,0,0,1-.24,1M135,92.63l-1.26.81a4.42,4.42,0,0,1-1.52.79.69.69,0,0,1-.25,0,.5.5,0,0,1-.16-.11c0-.1.22-.3.77-.59.37-.2.66-.37.88-.51l1.12-.67c.24-.15.49-.3.74-.47l1-.68L141,91l-3.21,4.27c-.39.53-.68,1-.88,1.27s-.29.53-.26.59.09.12.22.17a.77.77,0,0,0,.36.09q1,0,3.09-1.71a38.34,38.34,0,0,0,4.58-4.52l5.19-.16-3.34,4.82a6.33,6.33,0,0,0-.61,1,.67.67,0,0,0-.11.48s.06.08.15.11a.92.92,0,0,0,.32,0,3.67,3.67,0,0,0,1.39-.34,19.51,19.51,0,0,0,2.19-1.17l2.34-1.42q4.29-2.64,5.31-2.64l.35,0h.15a21.66,21.66,0,0,0-4.55,2.49c-.82.54-1.47,1-1.95,1.25l-.08.06c-2.5,1.58-4.53,2.36-6,2.36a5.76,5.76,0,0,1-2.24-.39,2,2,0,0,1-1.19-1,1.42,1.42,0,0,1,0-.93,11.36,11.36,0,0,1,1-1.84A23.36,23.36,0,0,1,139,97.36a6,6,0,0,1-2.89.72,5.11,5.11,0,0,1-2.1-.39,2,2,0,0,1-1.14-1,1.8,1.8,0,0,1,.23-1.42,14.55,14.55,0,0,1,1.9-2.59m-11.55-.39.64-1.08,4.22-.16-2.69,4.77c-.22.39-.4.71-.53,1s-.18.42-.16.47a.39.39,0,0,0,.22.22.81.81,0,0,0,.38.08c.42,0,1.68-.67,3.78-2l1.22-.79c1.59-1,2.83-1.72,3.71-2.15a5.05,5.05,0,0,1,2-.66l.33,0h.16a21.79,21.79,0,0,0-4.48,2.43l-1.39.88-1,.68a10.84,10.84,0,0,1-5.57,2.17,5.28,5.28,0,0,1-2-.36,1.78,1.78,0,0,1-1.09-1,1.6,1.6,0,0,1-.12-.66,1.77,1.77,0,0,1,.2-.63,8.13,8.13,0,0,1-2.69,1.92,8,8,0,0,1-6.11.1,2.77,2.77,0,0,1-1.63-1.45,1.86,1.86,0,0,1,.25-1.86,5.92,5.92,0,0,1,2.28-1.65,18,18,0,0,1,3.29-1.19,12.51,12.51,0,0,1,3.07-.4,7.77,7.77,0,0,1,2.38.31,2.92,2.92,0,0,1,1.44.93m-.7.16a1.26,1.26,0,0,0-.73-.65,3.24,3.24,0,0,0-1.32-.26,3.61,3.61,0,0,0-1.82.6,13.7,13.7,0,0,0-2.28,1.85,12.89,12.89,0,0,0-1.86,2.11,1.52,1.52,0,0,0-.34,1.29.63.63,0,0,0,.33.35,1.87,1.87,0,0,0,.72.11,5.44,5.44,0,0,0,2.14-.51,10.39,10.39,0,0,0,2.34-1.42,12.85,12.85,0,0,0,2.23-2.09c.5-.63.7-1.09.59-1.38" transform="translate(0)"/><path class="cls-3" d="M188.32,91.92h0m-31.56,0-.52.3m25.27-.5.88,0-.91.27a12.07,12.07,0,0,0-2,1c-.78.44-1.73,1-2.83,1.71a2.08,2.08,0,0,0-.11.41h0a1.75,1.75,0,0,0,.12.89,2,2,0,0,0,.54.76,3.79,3.79,0,0,0,1,.61,6.34,6.34,0,0,0,1.36.41A8.94,8.94,0,0,0,181,98a14.51,14.51,0,0,0,1.63-.16,7.85,7.85,0,0,0,1.49-.48,8,8,0,0,0,1.39-.79,8.57,8.57,0,0,0,1.25-1.1l.81-.86-.56,1a2.24,2.24,0,0,0-.12.29h0a1.57,1.57,0,0,0-.06.28,1.34,1.34,0,0,0,0,.28,2.23,2.23,0,0,0,.09.32,1.25,1.25,0,0,0,.34.47,2.75,2.75,0,0,0,.67.39,4.63,4.63,0,0,0,.91.26,7.16,7.16,0,0,0,1.07.08,5.44,5.44,0,0,0,2.4-.71,31.48,31.48,0,0,0,3-1.8h0c.39-.25.75-.51,1.12-.78s.85-.6,1.33-.91a42.88,42.88,0,0,0,4.15-2.91,14.42,14.42,0,0,0-1.32.7c-.72.42-2.53,1.66-3.91,2.61-.78.53-1.42,1-1.66,1.13-.86.54-1.57,1-2.13,1.44a4.67,4.67,0,0,1-1.64.94.91.91,0,0,1-.23,0,.94.94,0,0,1-.22-.07.83.83,0,0,1-.18-.13.66.66,0,0,1-.12-.17.46.46,0,0,1,0-.27l.14-.33c.07-.14.14-.29.23-.45h0l.31-.54,2.55-4.53-3.86.15-.6,1-.11.2-.14-.18a2.51,2.51,0,0,0-.56-.51,3.37,3.37,0,0,0-.81-.37,5.84,5.84,0,0,0-1.05-.23,10.1,10.1,0,0,0-1.28-.08,10.72,10.72,0,0,0-1.48.1q-.75.1-1.56.3l-.8.22m-2.64,1.07-.83.45-.36.24a4.44,4.44,0,0,0-.67.58c.86-.54,1.62-1,2.27-1.35q.74-.41,1.29-.66l-.08,0c-.33.12-.65.25-1,.39l-.64.32M156.76,92a3.06,3.06,0,0,1,1-.25l.37,0h.14l.91,0-.87.26a9.4,9.4,0,0,0-.89.35l.05,0h0a.41.41,0,0,1,.13.1.61.61,0,0,1,.07.14.56.56,0,0,1-.07.45h0a3.32,3.32,0,0,1-.37.57h0c-.17.23-.4.51-.68.83s-.61.68-1,1.1h0L153.31,98l5.3-.14c.95-1,1.87-1.86,2.77-2.64a30.31,30.31,0,0,1,2.7-2.06,14.39,14.39,0,0,1,2.41-1.31,5.31,5.31,0,0,1,2-.45h0l.24,0,.18.05a.39.39,0,0,1,.14.1.33.33,0,0,1,.1.14c0,.11-.05.27-.26.48s-.42.37-.77.64l-.86.68h0l-.11.09a11.2,11.2,0,0,0-1,.9,2.77,2.77,0,0,0-.51.68h0a1.39,1.39,0,0,0-.16.54,1.27,1.27,0,0,0,.08.54,2,2,0,0,0,.45.68,2.89,2.89,0,0,0,.77.56,4.53,4.53,0,0,0,1,.37,5.22,5.22,0,0,0,1.13.12,7.11,7.11,0,0,0,2.68-.67,25.36,25.36,0,0,0,3.7-2l.19-.13.45-.3h0l.42-.27a2.14,2.14,0,0,1,.23-.38l0-.05c-.6.35-1.25.75-2,1.19h0l-.68.42h0c-.5.3-1,.58-1.41.81s-.85.45-1.24.62a7.73,7.73,0,0,1-1,.38,2.69,2.69,0,0,1-.73.14l-.23,0-.19,0a.56.56,0,0,1-.17-.09h0a.42.42,0,0,1-.11-.16c0-.12,0-.27.13-.44a3.16,3.16,0,0,1,.52-.5h0a3.2,3.2,0,0,0,.27-.22l.22-.18h0c.48-.43.88-.8,1.18-1.13a4.62,4.62,0,0,0,.63-.81,1.57,1.57,0,0,0,.21-.62,1.23,1.23,0,0,0-.07-.57,2.24,2.24,0,0,0-.44-.71,2.69,2.69,0,0,0-.72-.55,3.64,3.64,0,0,0-1-.34,5.2,5.2,0,0,0-1.15-.12,5.9,5.9,0,0,0-1.51.21,9.39,9.39,0,0,0-1.69.61A16.35,16.35,0,0,0,163.62,93h0c-.67.42-1.37.92-2.11,1.49l-.47.36.23-.55a3,3,0,0,0,.16-.48,2.46,2.46,0,0,0,.08-.46,2.13,2.13,0,0,0,0-.44,2.11,2.11,0,0,0-.12-.43h0a1.64,1.64,0,0,0-.32-.54h0a2.15,2.15,0,0,0-.51-.43h0a2.38,2.38,0,0,0-.66-.28,2.71,2.71,0,0,0-.71-.1,3.12,3.12,0,0,0-.81.12,6.49,6.49,0,0,0-1,.36c-.2.09-.41.2-.64.32m-.81.71c-.47.23-1,.53-1.64.89l0,0h.07a1.25,1.25,0,0,0,.48-.15l.22-.11.71-.42c.22-.14.43-.25.6-.34.36-.19.69-.36,1-.49a8.24,8.24,0,0,0-1.4.58m-20.1-.56a2.11,2.11,0,0,0-.3.07l-.1.11.4-.18m-.32-.25a2.39,2.39,0,0,1,.64-.1h.13l.22,0h.15l.9,0-.86.27a9.78,9.78,0,0,0-1.78.8h0c-.41.49-.76.92-1,1.3a6.59,6.59,0,0,0-.68,1.06A2.31,2.31,0,0,0,133,96a1,1,0,0,0,0,.56h0a1.38,1.38,0,0,0,.37.54,2.48,2.48,0,0,0,.68.43h0a4.22,4.22,0,0,0,.93.28,5.52,5.52,0,0,0,1.11.1,5.76,5.76,0,0,0,1.45-.18,5.88,5.88,0,0,0,1.37-.53A11.48,11.48,0,0,0,140.6,96c.69-.58,1.51-1.33,2.44-2.24l.87-.86-.63,1c-.26.44-.48.81-.63,1.1a5.24,5.24,0,0,0-.32.71,1.59,1.59,0,0,0-.08.45.87.87,0,0,0,.06.37h0a1.22,1.22,0,0,0,.38.53,2.26,2.26,0,0,0,.72.44,4.44,4.44,0,0,0,1,.28,6.29,6.29,0,0,0,1.19.1,7.47,7.47,0,0,0,2.6-.58,20.41,20.41,0,0,0,3.36-1.76l.08-.06h0l.93-.59,1-.66.59-.38h0l-.09,0h0a.2.2,0,0,1-.09-.09l-1.48.89h0l-1.27.77-1.07.65c-.45.27-.86.51-1.23.71a9.27,9.27,0,0,1-1,.47,5.2,5.2,0,0,1-.78.27,2.82,2.82,0,0,1-.67.09h-.21l-.17,0-.13-.06h0a.3.3,0,0,1-.11-.14.44.44,0,0,1,0-.28h0a1.44,1.44,0,0,1,.12-.32,3.74,3.74,0,0,1,.25-.45c.1-.17.22-.36.37-.57l3.17-4.57-4.82.15c-.81.92-1.59,1.75-2.33,2.49s-1.52,1.43-2.23,2a13.87,13.87,0,0,1-1.84,1.29,3,3,0,0,1-1.34.44l-.22,0h0l-.21-.07-.18-.11a.33.33,0,0,1-.12-.15h0a.44.44,0,0,1,0-.32c.05-.1.12-.24.22-.41l.38-.57.51-.71h0l3-4-4.32.16-.48.33h0Zm-3.12,1.88-.22.13L132,94,132,94h0l.05,0a.32.32,0,0,0,.09,0h.1a1.35,1.35,0,0,0,.47-.18l.14-.08.72-.45.1-.06h0c.25-.17.48-.32.7-.45h0l.57-.36.3-.19a9.43,9.43,0,0,0-.91.41c-.24.11-.5.25-.8.41l-.36.22-.49.28h0l-.21.12m-9-1.77.52-.9,0-.07h.09l4.23-.17h.28l-.14.24-2.69,4.78h0c-.12.2-.22.37-.3.53l-.23.43h0c-.06.13-.1.23-.13.31s0,0,0,0,0,0,0,.06a.26.26,0,0,0,.1.07.53.53,0,0,0,.15,0l.16,0a3.73,3.73,0,0,0,1.19-.49h0c.62-.33,1.45-.83,2.5-1.49h0l.7-.45.51-.34h0c.58-.37,1.12-.69,1.6-1l.23-.14.29-.17c.29-.17.55-.32.8-.45h0l1.12-.67.37-.23.37-.24.48-.32h0l.53-.36,0,0h.05l4.68-.17h.33l-.2.26-3.21,4.28-.51.7c-.14.21-.26.39-.36.56a2.39,2.39,0,0,0-.2.37.59.59,0,0,0-.05.08h0a.35.35,0,0,0,.12.07h0l.15,0h0l.15,0a2.74,2.74,0,0,0,1.19-.41,13.88,13.88,0,0,0,1.8-1.26c.7-.57,1.43-1.23,2.2-2S144,92,144.77,91.06l0,0h.07l5.2-.17h.31l-.18.25-3.34,4.82h0l-.37.56c-.1.17-.18.31-.23.42h0a.81.81,0,0,0-.1.25h0a.34.34,0,0,0,0,.09l.06,0h0l.11,0h.16a2.76,2.76,0,0,0,.6-.08,5.77,5.77,0,0,0,.73-.25c.27-.12.59-.27,1-.47s.77-.42,1.22-.7h0l1.07-.65,1.27-.76c.65-.4,1.25-.76,1.79-1.07a1.37,1.37,0,0,1,.21-.18,3.66,3.66,0,0,1,.33-.23c.51-.35,1-.66,1.42-.91a13.16,13.16,0,0,1,1.19-.64,6.65,6.65,0,0,1,1-.37,3.3,3.3,0,0,1,.89-.13,3,3,0,0,1,.8.11,2.92,2.92,0,0,1,.73.31,2.41,2.41,0,0,1,.59.5,2.25,2.25,0,0,1,.38.63,3,3,0,0,1,.13.49,2.9,2.9,0,0,1,0,.51h0a3.35,3.35,0,0,1-.08.51v0c.6-.45,1.17-.85,1.72-1.2h0a17.71,17.71,0,0,1,2-1.07,10.35,10.35,0,0,1,1.74-.64,6.56,6.56,0,0,1,1.59-.21A5.87,5.87,0,0,1,170,91a3.91,3.91,0,0,1,1,.38h0a3.08,3.08,0,0,1,.8.61,2.57,2.57,0,0,1,.5.81,1.47,1.47,0,0,1,.09.72,2,2,0,0,1-.25.73,4.86,4.86,0,0,1-.67.87,15.78,15.78,0,0,1-1.21,1.15h0l-.21.18h0l-.28.23h0a3,3,0,0,0-.47.45c-.07.08-.1.13-.09.14h0v0h0l.08,0h0l.13,0h.18a2.38,2.38,0,0,0,.64-.12,8.74,8.74,0,0,0,1-.36c.37-.17.77-.37,1.21-.61s.9-.51,1.4-.81h0l.67-.42c1.33-.82,2.46-1.49,3.4-2a9,9,0,0,1,1-.56h0c.15-.08.3-.14.46-.21a9.66,9.66,0,0,1,1-.4l.25-.09a15.31,15.31,0,0,1,1.64-.5,13.49,13.49,0,0,1,1.59-.31,11.4,11.4,0,0,1,1.52-.1,10.89,10.89,0,0,1,1.32.08,5.69,5.69,0,0,1,1.11.24,4,4,0,0,1,.88.41,2.8,2.8,0,0,1,.49.41l.52-.9,0-.07h.09l4.23-.17h.28l-.14.24-2.69,4.78h0l-.3.53h0c-.09.16-.17.3-.23.43h0c-.06.13-.1.23-.13.31s0,0,0,0h0s0,0,0,.06a.26.26,0,0,0,.1.07.53.53,0,0,0,.15,0l.16,0a5.29,5.29,0,0,0,1.46-.89c.56-.39,1.27-.89,2.14-1.44.25-.16.89-.6,1.65-1.13,1.39-1,3.21-2.2,3.94-2.62a9.74,9.74,0,0,1,1.64-.83c.3-.09.43,0,.39.2a1.05,1.05,0,0,1-.32.4,40.37,40.37,0,0,1-4.23,3c-.47.31-.89.61-1.31.91s-.73.52-1.13.78h0a33.06,33.06,0,0,1-3,1.82,5.77,5.77,0,0,1-2.54.75,5.62,5.62,0,0,1-1.12-.1,4.68,4.68,0,0,1-1-.27h0a2.66,2.66,0,0,1-.75-.45,1.43,1.43,0,0,1-.43-.59,2,2,0,0,1-.1-.38h0a1,1,0,0,1,0-.35h0v-.06a7.48,7.48,0,0,1-.83.68,7.7,7.7,0,0,1-4.62,1.49,8.57,8.57,0,0,1-1.64-.14A6.72,6.72,0,0,1,178,97.7a4.06,4.06,0,0,1-1.09-.67,2.19,2.19,0,0,1-.62-.88,2.12,2.12,0,0,1-.14-1l0-.11-.1.06-.45.3-.19.13h0a25,25,0,0,1-3.75,2.07,7.36,7.36,0,0,1-2.8.7,5.19,5.19,0,0,1-1.2-.13,5,5,0,0,1-1.08-.39h0a3.59,3.59,0,0,1-.86-.62,2.33,2.33,0,0,1-.51-.79,1.56,1.56,0,0,1-.1-.67,1.67,1.67,0,0,1,.2-.66,3.44,3.44,0,0,1,.56-.75h0a11.74,11.74,0,0,1,1-.93h0l.12-.09.86-.68h0a8,8,0,0,0,.74-.62c.12-.11.19-.12.18-.14h0s0,0,0,0h0l0,0-.12,0-.18,0a4.85,4.85,0,0,0-1.84.43,13.35,13.35,0,0,0-2.35,1.28h0a28,28,0,0,0-2.68,2c-.91.79-1.84,1.68-2.79,2.66l0,0h-.06l-5.75.16h-.37l.26-.28,2.45-2.59,1-1.09c.28-.32.51-.6.67-.81h0a2.79,2.79,0,0,0,.34-.52h0a.36.36,0,0,0,.06-.2l0,0h0s0,0,0,0h0a.09.09,0,0,0-.07,0l-.1,0a1.35,1.35,0,0,0-.47.14l-.13.06-.05,0-.54.3-.1.07h0c-.23.14-.43.26-.61.35l-1.44.92-1,.66-.93.59-.08.06h0a22,22,0,0,1-3.42,1.79,7.68,7.68,0,0,1-2.72.6,7,7,0,0,1-1.25-.1,5.37,5.37,0,0,1-1.05-.3,3.11,3.11,0,0,1-.81-.49h0a1.83,1.83,0,0,1-.47-.66,1.27,1.27,0,0,1-.07-.48h0a1.91,1.91,0,0,1,.09-.55h0a6.64,6.64,0,0,1,.34-.75l.09-.17c-.61.59-1.17,1.08-1.66,1.49A11.22,11.22,0,0,1,139,97.5a6.22,6.22,0,0,1-1.43.55,6,6,0,0,1-1.53.19,6.15,6.15,0,0,1-1.17-.1,4.25,4.25,0,0,1-1-.31,2.74,2.74,0,0,1-.77-.48,1.77,1.77,0,0,1-.45-.66,1.42,1.42,0,0,1-.06-.72,2.8,2.8,0,0,1,.29-.82,7.61,7.61,0,0,1,.7-1.1c.16-.22.34-.45.54-.7l-.49.29c-.27.18-.51.33-.71.44l-.71.45-.78.5-.61.38-.43.29h0l-.59.39a16.42,16.42,0,0,1-3.08,1.64,7.21,7.21,0,0,1-2.58.56,5.8,5.8,0,0,1-1.13-.1,4.76,4.76,0,0,1-1-.27h0a2.66,2.66,0,0,1-.75-.45,1.43,1.43,0,0,1-.43-.59,1.78,1.78,0,0,1-.1-.38,1,1,0,0,1,0-.35h0v-.06a7.48,7.48,0,0,1-.83.68,7.7,7.7,0,0,1-4.62,1.49,8.64,8.64,0,0,1-1.64-.14,6.72,6.72,0,0,1-1.42-.42,4.06,4.06,0,0,1-1.09-.67,2.19,2.19,0,0,1-.62-.88h0a2,2,0,0,1,.26-2,3.87,3.87,0,0,1,.92-.87,8.73,8.73,0,0,1,1.43-.83h0a18,18,0,0,1,1.67-.7,15.31,15.31,0,0,1,1.64-.5,13.49,13.49,0,0,1,1.59-.31,11.4,11.4,0,0,1,1.52-.1,10.76,10.76,0,0,1,1.32.08,5.69,5.69,0,0,1,1.11.24h0a4.2,4.2,0,0,1,.88.41,2.8,2.8,0,0,1,.49.41m-6.94,1.84h0m-.73,4.12a7.49,7.49,0,0,0,1.17-.15,7.85,7.85,0,0,0,1.49-.48,8,8,0,0,0,1.39-.79h0a9.12,9.12,0,0,0,1.25-1.1l.81-.85-.56,1a2.24,2.24,0,0,0-.12.29,1.57,1.57,0,0,0-.06.28h0a1.34,1.34,0,0,0,0,.28,2.23,2.23,0,0,0,.09.32,1.25,1.25,0,0,0,.34.47,2.75,2.75,0,0,0,.67.39,4.63,4.63,0,0,0,.91.26,7.16,7.16,0,0,0,1.07.08,6.79,6.79,0,0,0,2.47-.53,16.1,16.1,0,0,0,3-1.61l.59-.39.43-.29h0l.61-.38.64-.4-.07,0h0l-.12-.06h0l-.09-.08-1.08.67-.53.35-.7.44c-1.05.67-1.89,1.17-2.53,1.51h0a3.81,3.81,0,0,1-1.33.52.91.91,0,0,1-.23,0h0a.94.94,0,0,1-.22-.07h0a.83.83,0,0,1-.18-.13h0a.66.66,0,0,1-.12-.17h0a.46.46,0,0,1,0-.27l.14-.33c.07-.14.14-.29.23-.45l.31-.54L128,91.16l-3.86.15-.6,1-.11.2-.14-.18a2.51,2.51,0,0,0-.56-.51,3.37,3.37,0,0,0-.81-.37,5.84,5.84,0,0,0-1.05-.23,10.1,10.1,0,0,0-1.28-.08,10.72,10.72,0,0,0-1.48.1,15.62,15.62,0,0,0-1.55.3A16.46,16.46,0,0,0,115,92q-.83.3-1.65.69a8.55,8.55,0,0,0-1.38.8,3.67,3.67,0,0,0-.85.8,1.87,1.87,0,0,0-.34.82h0a1.75,1.75,0,0,0,.12.89,2,2,0,0,0,.54.76,3.64,3.64,0,0,0,1,.61,6.34,6.34,0,0,0,1.36.41,15.44,15.44,0,0,0,2,.12" transform="translate(0)"/><path class="cls-5" d="M84,100.5c38.46-.12,75.32,1.27,114.47-.6-.6,1.83-44,3.13-53.75,3.63-14.19.73-40.26.75-54.17.17A9.29,9.29,0,0,1,84,100.5" transform="translate(0)"/><path class="cls-5" d="M113.86,88.2c15.25.22,37.75,1.38,48.06-1,3.75-.86,5.76-6.36,8.4-10.89-4.86,1.37-5.62,7.16-10.87,8.39-8.55,2-17.68,1.85-30.62,1.82-2.34,0-14.24.39-15,1.65" transform="translate(0)"/><path class="cls-5" d="M198.75,78.06c4.76,10.88-3.31,9.77-5.84,10.18-4.95.51-18.42.91-21.14-.41s2.49-7.51,4.54-11.83c2.33,4.78-4.38,9-.54,9.92,5.7,1.36,10.13,1.39,16.68,1.3,2,0,6.38-1.27,5.63-9.59-.06-.63-.05-.92.67.43" transform="translate(0)"/><path class="cls-5" d="M209.22,93.08c.61-1.06,1.27-1.23,3.25-1.52-2-1.75-4.34-1.65-5.53-.26a3.34,3.34,0,0,0-.93,2.2c.06,1.9,2.34,3.45,4.79,3.55-2.49-2.32-1.91-3.41-1.58-4" transform="translate(0)"/><path class="cls-5" d="M212,85.21c.87-.89,1.39-.81,3.37-.59-1.74-2-4-2.26-5.43-1.06a3.32,3.32,0,0,0-1.24,2c-.21,1.88,1.82,3.74,4.23,4.19-2.52-2.44-1.44-4.07-.93-4.59" transform="translate(0)"/><path class="cls-5" d="M207.65,78.56c-1.39-1.44-1.92-2.32-3.41-3.67a20.05,20.05,0,0,0,.86,3.27c1,2.39,1.68,2.66,2,2.91,1.62,1.22,4.72.81,6.76-.57-4,.27-5.71-1.42-6.21-1.94" transform="translate(0)"/><path class="cls-3" d="M201,91.87a16.76,16.76,0,0,0-2.17,1.33,5.13,5.13,0,0,1-1.35.82.19.19,0,0,1-.16,0,.13.13,0,0,1,0-.13c0-.09.29-.31.8-.64q.36-.21.57-.36l1-.66.51-.33a14.32,14.32,0,0,0,1.52-1.06l.34-.36c.29-.32.52-.47.71-.47A.3.3,0,0,1,203,90a.17.17,0,0,1,.08.17,1.79,1.79,0,0,1-.48.43,1.26,1.26,0,0,0-.51.59,3.21,3.21,0,0,0,.59,1.19,2.69,2.69,0,0,1,.39,2.1,4.9,4.9,0,0,1-2.27,3,7.61,7.61,0,0,1-3,.62,3.1,3.1,0,0,1-1.8-.46,1,1,0,0,1-.54-1.12,1.15,1.15,0,0,1,.52-.74,1.72,1.72,0,0,1,1-.3,1,1,0,0,1,.72.23.69.69,0,0,1,.16.65,1,1,0,0,1-.4.55,1.17,1.17,0,0,1-.68.24h-.22l-.18,0a1.11,1.11,0,0,0,.4.29,1.35,1.35,0,0,0,.5.09,2.79,2.79,0,0,0,2.2-1.38,9.22,9.22,0,0,0,1.47-3.66Z" transform="translate(0)"/><path class="cls-3" d="M199.9,92.32c.36-.22.72-.42,1.06-.59l.29-.14-.07.31-.12.6a11.58,11.58,0,0,1-.61,2.08,7,7,0,0,1-.89,1.63,4,4,0,0,1-1.09,1.08,2.32,2.32,0,0,1-1.23.37,1.43,1.43,0,0,1-.29,0,1.38,1.38,0,0,1-.27-.08h0a1,1,0,0,1-.24-.14h0a1,1,0,0,1-.21-.19l-.37-.4.52.15h.08l.08,0h.2A.75.75,0,0,0,197,97a1.1,1.1,0,0,0,.3-.16,1.25,1.25,0,0,0,.23-.23.54.54,0,0,0,.1-.22.62.62,0,0,0,0-.3.37.37,0,0,0-.12-.2.48.48,0,0,0-.24-.14,1,1,0,0,0-.37-.06,1.78,1.78,0,0,0-.47.07h0a1.65,1.65,0,0,0-.42.21,1.45,1.45,0,0,0-.31.29,1.09,1.09,0,0,0-.15.35.79.79,0,0,0,0,.51,1.21,1.21,0,0,0,.43.45h0a3,3,0,0,0,1.71.43,8.36,8.36,0,0,0,1.54-.15,7.63,7.63,0,0,0,1.43-.45,3.9,3.9,0,0,0,1.32-1.15,4.66,4.66,0,0,0,.86-1.71,2.76,2.76,0,0,0,0-1,2.85,2.85,0,0,0-.4-1h0a9.12,9.12,0,0,1-.46-.8h0a1,1,0,0,1-.14-.51.76.76,0,0,1,.19-.33,2.52,2.52,0,0,1,.37-.34h0c.14-.11.26-.2.33-.27l.08-.07s0,0,0,0h0a.17.17,0,0,0-.12,0,.45.45,0,0,0-.23.09h0a3.28,3.28,0,0,0-.37.33h0l0,0h0c-.12.14-.23.24-.3.32h0a4.29,4.29,0,0,1-.54.42c-.25.18-.59.4-1,.66l-.5.33-1,.66-.25.16h0l-.32.19a6.63,6.63,0,0,0-.58.4h0a.79.79,0,0,0-.15.13h0a1.53,1.53,0,0,0,.36-.19c.22-.13.52-.33.9-.61s.76-.52,1.13-.75m.91-.16c-.24.13-.49.27-.75.43s-.73.47-1.11.74-.69.48-.92.62a1.39,1.39,0,0,1-.52.23l-.14,0a.35.35,0,0,1-.13-.08.22.22,0,0,1-.08-.13h0a.38.38,0,0,1,0-.15c0-.08.1-.18.27-.32h0q.21-.17.6-.42h0l.32-.2h0l.25-.16,1-.67.5-.32c.41-.26.75-.49,1-.66a5.49,5.49,0,0,0,.51-.38l.29-.31h0l0-.05h0a3.35,3.35,0,0,1,.43-.38.77.77,0,0,1,.4-.14.47.47,0,0,1,.32.12.36.36,0,0,1,.11.14.28.28,0,0,1,0,.18.48.48,0,0,1-.18.24,3.67,3.67,0,0,1-.36.29,2,2,0,0,0-.33.29.51.51,0,0,0-.11.2h0a.81.81,0,0,0,.11.3h0a5.43,5.43,0,0,0,.45.77,3,3,0,0,1,.43,1.07,3,3,0,0,1,0,1.15,5,5,0,0,1-.92,1.84,4,4,0,0,1-1.45,1.24,6.78,6.78,0,0,1-1.49.47,7.51,7.51,0,0,1-1.6.17,3.33,3.33,0,0,1-1.89-.49,1.57,1.57,0,0,1-.53-.57,1.14,1.14,0,0,1-.08-.71,1.33,1.33,0,0,1,.21-.47,1.54,1.54,0,0,1,.39-.37,1.8,1.8,0,0,1,.5-.25h0a2.1,2.1,0,0,1,.56-.08,1.33,1.33,0,0,1,.47.07.9.9,0,0,1,.36.21.72.72,0,0,1,.2.36,1,1,0,0,1,0,.43h0a1,1,0,0,1-.16.35,1.19,1.19,0,0,1-.3.29,1.74,1.74,0,0,1-.37.21l-.22,0,.09,0a.86.86,0,0,0,.23,0A1.9,1.9,0,0,0,198.3,97a3.76,3.76,0,0,0,1-1h0a7.08,7.08,0,0,0,.85-1.57,11.6,11.6,0,0,0,.6-2Z" transform="translate(0)"/><path class="cls-6" d="M282.06,142.88a12.15,12.15,0,0,0-4.87,1,15.06,15.06,0,0,0-7.28,7.29,12.21,12.21,0,0,0-1,4.89,13.53,13.53,0,0,0,.86,4.87,13.71,13.71,0,0,0,2.49,4.11l18.87-18.73a14.21,14.21,0,0,0-4.21-2.55,13.61,13.61,0,0,0-4.87-.87m.68,29.08h-.59a14.9,14.9,0,0,1-10.93-4.72,16.24,16.24,0,0,1-3.48-5.11,15.18,15.18,0,0,1,3.45-16.75,15.57,15.57,0,0,1,11.42-4.59,15.24,15.24,0,0,1,11.69,5.41l.08.09-20.55,20.29a17.06,17.06,0,0,0,4,2.45,10.3,10.3,0,0,0,4,.84,15.17,15.17,0,0,0,3.69-.44,13.08,13.08,0,0,0,3.28-1.34,15.38,15.38,0,0,0,2.82-2.09,15.23,15.23,0,0,0,2.28-2.69l.23.07v3.34l0,.09a16,16,0,0,1-5.18,3.86,14.74,14.74,0,0,1-6.18,1.29m-31.63.06h-.59a14.68,14.68,0,0,1-10.9-4.68,16.18,16.18,0,0,1-3.41-5.1,15.24,15.24,0,0,1-1.14-5.9,14.83,14.83,0,0,1,4.62-10.89A15.48,15.48,0,0,1,251,140.86a15.17,15.17,0,0,1,6.24,1.27,16.1,16.1,0,0,1,5.25,3.81l0,.09v3.34l-.23.07a15.16,15.16,0,0,0-2.28-2.68,15.56,15.56,0,0,0-2.81-2.07,13.64,13.64,0,0,0-3.16-1.31,12.93,12.93,0,0,0-8.33.56,14.4,14.4,0,0,0-7.34,7.37,13.66,13.66,0,0,0,0,10.26,14.4,14.4,0,0,0,7.34,7.37,12.93,12.93,0,0,0,8.33.56,13.64,13.64,0,0,0,3.16-1.31,14.87,14.87,0,0,0,5.09-4.81l.23.07v3.41l0,.08a15.51,15.51,0,0,1-5.17,3.81,15.15,15.15,0,0,1-6.25,1.27M225.5,121.8h2.29v49.37h-2.42V121.8Zm-40.35,21a4.41,4.41,0,0,0-2.93,1.08,3.68,3.68,0,0,0-.95,1.2,3.42,3.42,0,0,0,0,3,4.92,4.92,0,0,0,1.08,1.41,14.25,14.25,0,0,0,1.61,1.3,19.31,19.31,0,0,0,1.9,1.2c.69.38,1.38.78,2.07,1.19s1.4.84,2.09,1.27a12.55,12.55,0,0,1,2,1.5,13.38,13.38,0,0,1,1.65,1.87,7.84,7.84,0,0,1,1.5,4.73,9,9,0,0,1-.74,3.63,9.25,9.25,0,0,1-2.22,3A9.82,9.82,0,0,1,189,171.2a10.55,10.55,0,0,1-3.86.69,10.66,10.66,0,0,1-4.94-1.16,8.8,8.8,0,0,1-2-1.35,6.88,6.88,0,0,1-1.37-1.74l0-.06v-3.15l.24-.05a9.57,9.57,0,0,0,3.2,4.07,8,8,0,0,0,4.68,1.36,8.79,8.79,0,0,0,3.09-.52,7.78,7.78,0,0,0,2.56-1.55,7.27,7.27,0,0,0,1.71-2.18,5.31,5.31,0,0,0,.57-2.41,7.31,7.31,0,0,0-.36-2.34,6,6,0,0,0-1.08-1.93,13.77,13.77,0,0,0-1.62-1.62,14.14,14.14,0,0,0-1.92-1.37l-4.16-2.45a14.19,14.19,0,0,1-1.93-1.36,12.55,12.55,0,0,1-1.64-1.62,6.26,6.26,0,0,1-1.13-1.92,6.47,6.47,0,0,1-.37-2.22,5.06,5.06,0,0,1,.48-2.2,5.31,5.31,0,0,1,1.43-1.82,6.26,6.26,0,0,1,2.18-1.23,8.56,8.56,0,0,1,2.71-.41,6.74,6.74,0,0,1,5.14,2.33l0,.09v2.68l-.23.07a7.45,7.45,0,0,0-2.33-2.32,5.55,5.55,0,0,0-2.87-.76m-43.1,13.63a12.83,12.83,0,0,0,1,5.08,14.43,14.43,0,0,0,7.35,7.35,13.12,13.12,0,0,0,5.11,1,13,13,0,0,0,5.09-1,13.18,13.18,0,0,0,4.29-3,13.67,13.67,0,0,0,2.92-4.37,13.9,13.9,0,0,0,0-10.23,14,14,0,0,0-2.94-4.39,13.43,13.43,0,0,0-4.31-3,13.2,13.2,0,0,0-10.15,0,13.56,13.56,0,0,0-4.36,3,13.92,13.92,0,0,0-3,4.4,13,13,0,0,0-1,5.11M171,141.57v29.6h-2.35v-6.94a13.91,13.91,0,0,1-5.31,5.48,15.62,15.62,0,0,1-19-2.41,15.52,15.52,0,0,1-3.46-5,15.21,15.21,0,0,1-1.16-5.95,14.92,14.92,0,0,1,4.62-11,15.84,15.84,0,0,1,5.09-3.45A16,16,0,0,1,163.5,143a13.67,13.67,0,0,1,3.28,2.61,11.32,11.32,0,0,1,1.87,2.8v-6.93H171Zm-61.76,29.6H107V141.45h2.35V147q3.41-6.28,11.27-6.29a13.24,13.24,0,0,1,5.1,1,12.71,12.71,0,0,1,4.22,2.87,13,13,0,0,1,2.83,4.25,13.43,13.43,0,0,1,.94,5.08v17.28h-2.35V153.89a10.91,10.91,0,0,0-3.14-7.78,10.61,10.61,0,0,0-3.47-2.47,10.26,10.26,0,0,0-4.13-.83,10.92,10.92,0,0,0-7.87,3.31,10.47,10.47,0,0,0-3.4,7.77v17.28Zm-11.4-29.72h2.23v29.72H97.72V165.6q-3.42,6.28-11.27,6.29a13.29,13.29,0,0,1-5.11-1,12.71,12.71,0,0,1-4.22-2.87,13.18,13.18,0,0,1-2.83-4.25,13.62,13.62,0,0,1-.94-5.08V141.45H75.7v17.28a11,11,0,0,0,3.14,7.78A10.71,10.71,0,0,0,82.31,169a10.31,10.31,0,0,0,4.14.83,10.94,10.94,0,0,0,7.87-3.31,10.51,10.51,0,0,0,3.4-7.77V141.45ZM37.45,156.38a12.83,12.83,0,0,0,1,5.08,14.43,14.43,0,0,0,7.35,7.35,13.15,13.15,0,0,0,5.11,1,13,13,0,0,0,5.09-1,13.18,13.18,0,0,0,4.29-3,13.67,13.67,0,0,0,2.92-4.37,13.9,13.9,0,0,0,0-10.23,13.88,13.88,0,0,0-2.94-4.39,13.43,13.43,0,0,0-4.31-3,13.2,13.2,0,0,0-10.15,0,13.56,13.56,0,0,0-4.36,3,13.92,13.92,0,0,0-3,4.4,13,13,0,0,0-1,5.11m29-14.81v29.6H64.05v-6.94a13.91,13.91,0,0,1-5.31,5.48,15.62,15.62,0,0,1-19-2.41,15.52,15.52,0,0,1-3.46-5,15.21,15.21,0,0,1-1.16-5.95,14.92,14.92,0,0,1,4.62-11,15.84,15.84,0,0,1,5.09-3.45A16,16,0,0,1,58.9,143a13.67,13.67,0,0,1,3.28,2.61,11.32,11.32,0,0,1,1.87,2.8v-6.93H66.4ZM.38,121.8H2.6v17.86l20.56-17.83.08,0h2.62l.08.22L3.58,141.52l28.34,29.65H28.69l-26-27.12v27.12H.26V121.8Z" transform="translate(0)"/><rect class="cls-4" x="235.23" y="101.24" width="59.49" height="2.33"/><rect class="cls-4" y="101.24" width="59.49" height="2.33"/><rect class="cls-4" x="22.28" y="64.9" width="5.93" height="7.41" transform="translate(-47.82 70.92) rotate(-71.61)"/><path class="cls-7" d="M25.45,70.76a16.6,16.6,0,1,1-21,10.51,18.29,18.29,0,0,1,1-2.32c-.1.27-.21.54-.3.82a14.54,14.54,0,1,0,18.39-9.22,15.37,15.37,0,0,0-2.85-.64,16.71,16.71,0,0,1,4.78.85" transform="translate(0)"/><path class="cls-7" d="M27,77.43,22.4,80.67c4.12,3.55,5,7.1,4.47,10.65,2.83-3.95,3.25-8.49.15-13.89" transform="translate(0)"/><path class="cls-6" d="M272.71,217.17V192.53h-4v-1h5.17v25.64Zm-4.32-12.8a11.87,11.87,0,0,0-3.58-8.67,12,12,0,0,0-17.19,0,12.3,12.3,0,0,0,0,17.33,12.06,12.06,0,0,0,17.19,0,11.83,11.83,0,0,0,3.58-8.66m-11.93,13.25H256a12.35,12.35,0,0,1-9.17-4,13,13,0,0,1-3.86-9.34,13.3,13.3,0,0,1,26.6.09,12.91,12.91,0,0,1-1.74,6.51,13.44,13.44,0,0,1-4.79,4.89,12.42,12.42,0,0,1-6.53,1.83m-17.69-16.9a8.81,8.81,0,0,0-2.26-6,7.58,7.58,0,0,0-6-2.57,8.1,8.1,0,0,0-6.22,2.69,9.25,9.25,0,0,0-2.48,6.53h-1.07a10.06,10.06,0,0,1,2.81-7.27,9.37,9.37,0,0,1,7-2.91,8.67,8.67,0,0,1,6.77,2.84,9.72,9.72,0,0,1,2.58,6.75q0,5.67-6.07,9.47L224.51,216H239.8v1.13H221l12-7.57q5.86-3.71,5.86-8.88M191.3,209.5a7.21,7.21,0,0,0,7.11,7.09,6.65,6.65,0,0,0,5-2.11,6.87,6.87,0,0,0,2.06-5,6.94,6.94,0,0,0-2.07-5,6.7,6.7,0,0,0-5-2.13,6.77,6.77,0,0,0-5,2.14,6.94,6.94,0,0,0-2.11,5m-1,14.53V201.75h1.1v3.77a7,7,0,0,1,2.89-3,8.18,8.18,0,0,1,4.1-1.13,7.91,7.91,0,0,1,5.78,2.38,8.09,8.09,0,0,1-5.78,13.8,8,8,0,0,1-4-1.11,7.67,7.67,0,0,1-3-3V224Zm-4.87-22.28h1.1v15.42h-1.1v-3.12a6.11,6.11,0,0,1-6,3.5,6.52,6.52,0,0,1-4.84-2,6.62,6.62,0,0,1-1.95-4.83v-9h1.1v9a5.74,5.74,0,0,0,1.66,4.11,5.34,5.34,0,0,0,4,1.75,5.78,5.78,0,0,0,4.16-1.75,5.53,5.53,0,0,0,1.8-4.11Zm-23.31,15.8h-.38a12.52,12.52,0,0,1-6.58-1.85,13.5,13.5,0,0,1-4.81-4.92A13.32,13.32,0,0,1,161.92,191a13.6,13.6,0,0,1,7,1.92v1.27a12.16,12.16,0,0,0-7-2.2,12.33,12.33,0,0,0-12.24,12.29,11.91,11.91,0,0,0,3.6,8.69,11.71,11.71,0,0,0,8.64,3.64,12.09,12.09,0,0,0,7-2.2v1.27a12.71,12.71,0,0,1-6.79,1.92M128.63,202.3a2.33,2.33,0,0,0-1.57.58,1.82,1.82,0,0,0-.69,1.44,2.15,2.15,0,0,0,.77,1.58,9.52,9.52,0,0,0,1.85,1.32c.72.4,1.45.82,2.18,1.28a6.63,6.63,0,0,1,1.87,1.75,4.06,4.06,0,0,1,.77,2.43,4.57,4.57,0,0,1-1.52,3.45,5.22,5.22,0,0,1-3.69,1.42,5.54,5.54,0,0,1-2.55-.6,3.9,3.9,0,0,1-1.73-1.59v-1.65a4.34,4.34,0,0,0,4.18,2.88,4.27,4.27,0,0,0,3-1.1,3.23,3.23,0,0,0,1.21-2.45,3.42,3.42,0,0,0-.77-2.28,7,7,0,0,0-1.87-1.57l-2.17-1.29a7.13,7.13,0,0,1-1.85-1.54,3.16,3.16,0,0,1-.77-2.13,2.6,2.6,0,0,1,1-2,3.72,3.72,0,0,1,2.52-.84,3.45,3.45,0,0,1,2.64,1.2v1.4a3.26,3.26,0,0,0-2.78-1.64M106,209.5a7.21,7.21,0,0,0,7.11,7.09,6.67,6.67,0,0,0,5-2.11,7.12,7.12,0,0,0,0-10,6.66,6.66,0,0,0-5-2.13,6.79,6.79,0,0,0-5,2.14,6.94,6.94,0,0,0-2.11,5m15.15-7.75v15.42h-1.1v-3.83a7.16,7.16,0,0,1-2.87,3.08,8,8,0,0,1-4.12,1.13,7.88,7.88,0,0,1-5.76-2.38,8,8,0,0,1,0-11.42,7.91,7.91,0,0,1,5.76-2.38,8.23,8.23,0,0,1,4.2,1.17,6.23,6.23,0,0,1,2.79,3.08v-3.87ZM90.89,205a4.9,4.9,0,0,1,2-2.64,6.13,6.13,0,0,1,3.55-1,5.12,5.12,0,0,1,3.67,1.51,5.4,5.4,0,0,1,1.58,4.08v10.21h-1.1V207a4.51,4.51,0,0,0-1.3-3.31,4.26,4.26,0,0,0-3.14-1.32,4.59,4.59,0,0,0-3.26,1.37,4.34,4.34,0,0,0-1.42,3.19v10.28h-1.1V206.89a4.45,4.45,0,0,0-1.3-3.2,4.19,4.19,0,0,0-3.15-1.36,4.7,4.7,0,0,0-4.6,4.56v10.28H80.2V201.75h1.09v2.16a6.25,6.25,0,0,1,4.86-2.54,4.58,4.58,0,0,1,2.79,1,5.84,5.84,0,0,1,2,2.63M77.46,216.42v1a5.77,5.77,0,0,1-4.15-1.63,5.45,5.45,0,0,1-1.72-4.16V195.54h1.1v6.24h4.73v1H72.69v8.85a4.71,4.71,0,0,0,4.77,4.83m-14-14.12a2.33,2.33,0,0,0-1.57.58,1.82,1.82,0,0,0-.69,1.44A2.15,2.15,0,0,0,62,205.9a9.52,9.52,0,0,0,1.85,1.32c.72.4,1.45.82,2.18,1.28a6.77,6.77,0,0,1,1.87,1.75,4.06,4.06,0,0,1,.77,2.43,4.54,4.54,0,0,1-1.53,3.45,5.18,5.18,0,0,1-3.68,1.42,5.51,5.51,0,0,1-2.55-.6,4,4,0,0,1-1.74-1.59v-1.65a4.36,4.36,0,0,0,4.19,2.88,4.31,4.31,0,0,0,3-1.1A3.23,3.23,0,0,0,67.58,213a3.42,3.42,0,0,0-.77-2.28,7.17,7.17,0,0,0-1.87-1.57l-2.17-1.29a7.13,7.13,0,0,1-1.85-1.54,3.16,3.16,0,0,1-.78-2.13,2.61,2.61,0,0,1,1-2,3.72,3.72,0,0,1,2.52-.84,3.45,3.45,0,0,1,2.64,1.2v1.4a3.26,3.26,0,0,0-2.78-1.64M55,198c-.67,0-1-.31-1-.92s.33-.93,1-.93,1,.31,1,.93-.33.92-1,.92m.54,19.16H54.49V201.78h1.09Zm-4.45-13.33a4.62,4.62,0,0,0-3.33-1.51,4.43,4.43,0,0,0-3.2,1.37,4.35,4.35,0,0,0-1.39,3.19v10.28h-1.1V201.75h1.1v2.3a4.79,4.79,0,0,1,1.92-1.92,5.64,5.64,0,0,1,2.91-.76,5.1,5.1,0,0,1,3.09,1.1ZM25.59,217.17h-1.1V191.5h1.1v13.23a6.1,6.1,0,0,1,5.93-3.36,6.76,6.76,0,0,1,6.82,6.82v9H37.25v-9a5.73,5.73,0,0,0-1.68-4.13,5.45,5.45,0,0,0-4.05-1.73,5.73,5.73,0,0,0-4.15,1.75,5.58,5.58,0,0,0-1.78,4.11Zm-12,.38h-.37a12.53,12.53,0,0,1-6.59-1.85,13.5,13.5,0,0,1-4.81-4.92A13,13,0,0,1,4,194.88,12.89,12.89,0,0,1,13.42,191a13.58,13.58,0,0,1,7,1.92v1.27a12.16,12.16,0,0,0-7-2.2,11.76,11.76,0,0,0-8.64,3.62,12.26,12.26,0,0,0,0,17.36,11.71,11.71,0,0,0,8.64,3.64,12.09,12.09,0,0,0,7-2.2v1.27a12.71,12.71,0,0,1-6.79,1.92" transform="translate(0)"/><path class="cls-6" d="M296.93,200.91a9.08,9.08,0,0,0-2.74-6.64,8.94,8.94,0,0,0-6.59-2.77,8.82,8.82,0,0,0-6.55,2.77,9.15,9.15,0,0,0-2.71,6.66,9.33,9.33,0,0,0,2.73,6.72,8.75,8.75,0,0,0,6.51,2.82,8.92,8.92,0,0,0,6.57-2.84,9.26,9.26,0,0,0,2.78-6.72m-9.65,10.6a9.77,9.77,0,0,1-7.19-3.14,10.27,10.27,0,0,1-3.09-7.46,10,10,0,0,1,3.12-7.38,10.27,10.27,0,0,1,7.48-3.07,10.47,10.47,0,0,1,10.48,10.39q0,4.28-3.74,8.58l-8.13,9.31H284.8l7.35-8.42a5.8,5.8,0,0,1-2.08.83,11.55,11.55,0,0,1-2.79.36" transform="translate(0)"/></g></g></g></svg>